<?xml version="1.0" encoding="UTF-8" standalone="no"?>
<svg
   xmlns:dc="http://purl.org/dc/elements/1.1/"
   xmlns:cc="http://creativecommons.org/ns#"
   xmlns:rdf="http://www.w3.org/1999/02/22-rdf-syntax-ns#"
   xmlns:svg="http://www.w3.org/2000/svg"
   xmlns="http://www.w3.org/2000/svg"
   xmlns:sodipodi="http://sodipodi.sourceforge.net/DTD/sodipodi-0.dtd"
   xmlns:inkscape="http://www.inkscape.org/namespaces/inkscape"
   inkscape:version="1.0 (6e3e5246a0, 2020-05-07)"
   sodipodi:docname="happybirthday.svg"
   id="svg196"
   xml:space="preserve"
   viewBox="0 0 778.67975 566.73854"
   version="1.1"
   height="566.73853"
   width="778.67975"><defs
     id="defs200" /><sodipodi:namedview
     inkscape:current-layer="svg196"
     inkscape:window-maximized="1"
     inkscape:window-y="27"
     inkscape:window-x="0"
     inkscape:cy="327.36645"
     inkscape:cx="416.22408"
     inkscape:zoom="0.97649514"
     showgrid="false"
     id="namedview198"
     inkscape:window-height="1016"
     inkscape:window-width="1920"
     inkscape:pageshadow="2"
     inkscape:pageopacity="0"
     guidetolerance="10"
     gridtolerance="10"
     objecttolerance="10"
     borderopacity="1"
     bordercolor="#666666"
     pagecolor="#ffffff"
     inkscape:document-rotation="0"
     fit-margin-top="0"
     fit-margin-left="0"
     fit-margin-right="0"
     fit-margin-bottom="0" /><metadata
     id="metadata2"><rdf:RDF><cc:Work
         rdf:about=""><dc:format>image/svg+xml</dc:format><dc:type
           rdf:resource="http://purl.org/dc/dcmitype/StillImage" /><dc:title /></cc:Work></rdf:RDF></metadata><g
     id="g1325"
     transform="matrix(1.3557817,0,0,1.3557817,-353.47031,-47.961163)"><g
       id="g1224"><g
         id="g1124"><g
           transform="translate(61.962336,17.717285)"
           id="g1025"><g
             id="g194"
             transform="matrix(1.4647335,0,0,-1.4647335,-81.30599,589.26187)"><g
               id="g192"
               transform="matrix(0.079092,0,0,0.079092,84.997,95.941)"><path
                 id="path4"
                 fill="#050606"
                 d="m 5807.5,2237.2 -0.2,1.83 1.03,-0.19 z m -3.92,-10.53 c -4.1,-9.87 -15.41,-17.85 -10.2,-33.79 10.4,10.75 8.54,22.76 10.2,33.79 z M 5660.56,1752.4 c -39.46,-31.6 -71.78,-67.58 -99.91,-107.35 -19.45,-27.5 -36.19,-56.6 -44.84,-89.53 -4.81,-18.32 -7.01,-36.89 -1.81,-56.19 56.76,37.21 123.74,176.81 146.56,253.07 z m -1660.3,929.62 c 18.29,-2.01 29.34,0.72 43.82,8.94 32.41,18.41 59,42.79 84.39,70.47 48.44,52.84 86.27,110.82 107.35,179.43 6.68,21.75 11.48,43.65 6.44,66.56 -5.14,23.38 -16.45,29.63 -38.33,20.92 -25.2,-10.03 -43.8,-28.5 -58.3,-50.2 -23.12,-34.63 -46.59,-69.43 -65.44,-106.44 -24.8,-48.65 -45.55,-99.38 -67.38,-149.5 -5.32,-12.23 -8.06,-25.57 -12.55,-40.18 z m 703.59,-125.81 c -3.93,-1.73 -7,-2.89 -9.9,-4.38 -39.88,-20.5 -71.8,-50.28 -97.57,-86.4 -57.21,-80.19 -105.01,-165.22 -131.22,-261.06 -1.99,-7.26 -4.58,-14.34 -6.98,-21.48 -14.5,-43.26 -22.24,-87.56 -19.6,-133.29 0.57,-9.78 2.99,-19.43 4.97,-31.72 5.01,3.84 7.46,5.08 9.05,7.02 55.56,67.72 111.04,135.5 167.69,204.68 -12.62,1.13 -23.81,3.21 -27.98,11.27 29.74,56.94 59.18,111.05 86.32,166.29 12.61,25.66 21.42,53.31 30.72,80.48 7.81,22.85 4.51,45.46 -5.5,68.59 z m 610.29,-79.18 c -1.8,16.27 -2.53,32.73 -5.64,48.73 -4.52,23.22 -14.59,27.83 -36.62,18.68 -3.15,-1.3 -6.12,-3.04 -9.14,-4.64 -33.72,-17.94 -56.03,-47.45 -78.13,-77.16 -42.47,-57.09 -69.98,-122.12 -99.18,-186.29 -20.23,-44.46 -35.11,-90.65 -44.24,-138.5 -3.83,-20.03 -4.77,-40.72 -5.55,-61.17 -0.45,-12.31 4.04,-16.15 16.12,-15.87 6.54,0.16 14.48,1.15 19.28,4.93 22.48,17.69 47.05,33.98 65.19,55.53 20.49,24.36 36.82,52.82 51.57,81.25 25.18,48.49 48.1,98.16 71.09,147.75 5.15,11.13 11.25,18.52 23.71,18.97 10.86,0.38 15.89,6.88 17.79,16.42 6.01,30.14 14.61,59.95 13.75,91.37 z m -1691.8,143.56 c -1.68,-4.61 -3.5,-9.69 -5.36,-14.76 -18.31,-50.14 -36.61,-100.27 -54.94,-150.39 -9.39,-25.7 -19.85,-51.06 -28.05,-77.14 -21.33,-67.87 -41.86,-136 -62.36,-204.13 -11.31,-37.59 -18.03,-75.94 -15.94,-115.41 0.22,-4.09 1.37,-8.13 2.61,-15.11 6.17,8.24 10.53,13.51 14.3,19.17 62.41,93.69 133.8,180.32 207.68,265.03 13.95,16 27.45,32.25 47.75,40.69 2.31,77.81 10.47,153.79 29.94,228.11 -45.66,8.06 -89.23,15.75 -135.63,23.94 z m -534.09,-630.68 c 8.15,5.65 14.73,9.13 20,14.04 22.55,20.97 46.47,40.83 66.63,63.93 38.28,43.88 74.37,89.66 111.2,134.8 3.85,4.7 7.58,9.97 9.65,15.6 8.98,24.41 18.36,48.74 25.69,73.66 20.72,70.4 44.47,139.6 76.54,205.78 21.8,44.97 43.04,90.22 64.37,135.42 2.12,4.48 3.11,9.51 5.2,16.12 -16.17,0 -29.9,0.71 -43.52,-0.26 -8.68,-0.61 -17.99,-2.11 -25.65,-5.95 -38.1,-19.09 -70,-45.46 -91.39,-83.05 -11.53,-20.26 -14.61,-42.49 -14.35,-65.41 0.1,-8.56 0.01,-17.13 0.01,-25.16 -15.65,-8.83 -30.67,-5.43 -48.1,-3.34 -19.44,-44.25 -40.03,-88.24 -58.17,-133.22 -23.05,-57.14 -44.22,-115.03 -65.99,-172.67 -20.22,-53.54 -35.53,-108.09 -32.12,-170.29 z m 43.13,584.36 c -16.29,1.63 -32.58,3.26 -50.23,5.02 -7.88,-13.76 -15.6,-28.19 -24.18,-42.09 -29.85,-48.34 -59.26,-96.97 -90.21,-144.59 -38.43,-59.12 -77.49,-117.87 -117.66,-175.83 -37.45,-54.02 -76.62,-106.85 -115.2,-160.07 -14.08,-19.42 -29.83,-37.73 -42.76,-57.85 -36.13,-56.26 -139.32,-77.58 -204.17,-10.9 -21.38,21.99 -35.24,48.47 -48.62,75.39 -13.62,27.4 -19.64,57.01 -21.25,87.12 -0.87,16.15 1.84,32.81 5.12,48.8 12.62,61.45 35.92,119.25 63.28,175.4 42.35,86.93 90.58,170.65 144.56,250.79 14.64,21.73 35.34,40.03 55.61,57.11 21.42,18.05 51.75,13.94 69.94,-6.81 3.2,-3.66 4.87,-10.19 4.48,-15.18 -1.47,-19.05 -2.8,-38.26 -6.47,-56.97 -14.98,-76.4 -44.2,-148.11 -73.27,-219.92 -19.01,-46.96 -36.74,-94.48 -53.95,-142.16 -20.56,-56.93 -29.72,-116.72 -41.76,-175.76 -0.48,-2.38 -0.06,-4.95 -0.06,-10.64 43.13,36.12 84.31,70.15 115.54,113.92 34.2,47.95 66.68,97.11 100.05,145.66 9.31,13.54 19.59,26.43 28.58,40.18 15.73,24.06 30.13,48.99 46.31,72.72 23.54,34.52 48.67,67.96 72.15,102.52 18,26.5 34.5,54.03 52.34,82.14 -21.9,15.22 -106.61,26.91 -103.62,117.74 1.54,12.92 2.91,25.88 5.08,38.71 13.8,81.69 92.48,155.6 172.11,162.02 22.69,1.83 43.62,-3 62.19,-16.37 3.5,-2.52 5.92,-6.52 11.24,-12.57 -24.78,-0.36 -34.1,-16.45 -43.11,-32.06 -28.58,-49.48 -61.48,-106.11 -48.83,-163.89 2.92,-13.33 28.19,-54.26 30.49,-62.22 35.24,-2.04 67.96,-3.95 102.21,-5.93 4.44,5.93 9.35,13.28 15.04,19.95 32.82,38.44 74.45,60.11 125,62.47 58.11,2.72 116.3,4.06 176.83,6.07 14.71,29.7 30,62.49 46.99,94.36 19.32,36.22 39.7,71.9 60.57,107.25 10.17,17.24 24.33,31.43 41.65,41.97 17.4,10.57 44.06,6.11 55.39,-10.46 3.47,-5.07 4.28,-13.21 3.57,-19.64 -1.71,-15.62 -3.74,-31.42 -7.91,-46.52 -17.68,-64.02 -36.2,-127.82 -54.4,-191.71 -1.08,-3.83 -1.99,-7.71 -3.44,-13.35 43.8,-5.44 86.21,-10.72 130.23,-16.19 2.85,8.13 5.77,15.64 8.13,23.33 19.22,62.35 43.86,122.51 73.5,180.61 39.92,78.24 97.11,142.39 164.34,197.8 31.6,26.04 68.46,43.5 108.54,51.62 28.94,5.87 58.66,5.37 87.21,-4.85 9,-3.23 17.77,-7.14 26.55,-10.99 68.72,-30.11 86.18,-96.05 72.97,-154.93 -14.18,-63.2 -41.8,-120.1 -80.28,-171.93 -35.3,-47.56 -75.79,-90.15 -121.48,-127.93 -35.04,-28.97 -74.49,-48.57 -118.87,-57.84 -11.45,-2.39 -17.81,-6.47 -20.25,-18.87 -9.53,-48.39 -20.71,-96.45 -30,-144.88 -2.68,-13.93 -1.82,-28.69 -1.22,-43.02 0.28,-6.69 3.79,-13.25 7.63,-19.71 13.91,31.75 31.27,60.22 52.15,86.28 40.66,50.76 90.5,86.72 156.78,96.88 66.46,10.19 129.51,-30.07 142.43,-102.11 7.13,-39.76 5.75,-79.38 -7.84,-117.69 -23.57,-66.47 -47.48,-132.85 -72.25,-198.9 -21.21,-56.55 -41.07,-113.4 -50.87,-173.23 -3.86,-23.57 -6.63,-47.26 -4.79,-73.72 5.81,2.66 10.77,3.51 13.54,6.44 15,15.9 31.96,30.71 43.55,48.88 19.46,30.5 35.72,63.09 52.51,95.23 2.77,5.31 3.25,13.33 1.6,19.19 -10.97,38.8 -9.8,77.87 1.19,115.71 23.78,81.81 53.09,161.4 106.67,229.56 26.26,33.39 51.08,67.96 78.44,100.41 34.44,40.84 75.59,72.78 126.8,91.57 52.93,19.4 102.16,11.18 150.47,-13.59 5.36,-2.76 10.41,-6.13 16.89,-9.98 2.96,6.22 5.76,11.46 8,16.93 45.59,111.93 100.51,219.15 164.23,321.77 17.65,28.43 38.08,55.31 58.87,81.61 20.02,25.34 46.2,26.13 68.98,3.74 2.87,-2.82 4.75,-8.59 4.19,-12.59 -1.43,-10.09 -3.35,-20.41 -7.12,-29.81 -27.03,-67.38 -54.23,-134.69 -82.01,-201.76 -66.92,-161.54 -124.36,-326.48 -176.02,-493.43 -22.75,-73.52 -33.6,-149.56 -44.17,-229.74 5.75,5.46 9.23,7.93 11.64,11.2 6.09,8.27 11.73,16.88 17.47,25.4 31.78,47.16 63.6,94.31 95.25,141.54 5.32,7.94 11.01,15.91 14.68,24.63 27.21,64.72 63.32,124.58 100.78,183.55 29.89,47.06 64.47,90.81 111.12,122.63 18.45,12.59 39.36,21.87 59.92,30.93 16.22,7.15 33.77,11.2 50.44,17.42 29.51,11.01 59.36,10.28 88.86,1.69 34.82,-10.13 54.31,-37.18 63.91,-69.5 16.23,-54.59 7,-107.13 -21.16,-156.41 -5.94,-10.4 -14.22,-19.36 -10.02,-33.73 1.78,-6.1 -3.26,-14.35 -5.69,-21.45 -20.41,-59.64 -42.73,-118.85 -51.39,-181.65 -3.91,-28.38 -5.04,-57.36 -4.68,-86.05 0.2,-15.23 6.25,-30.4 10.1,-47.51 6.94,2.88 11.91,3.66 15.08,6.46 15.85,13.98 34.13,26.44 46.19,43.27 25.07,35.01 46.85,72.39 69.71,108.97 2.46,3.93 4.05,8.89 4.49,13.52 5.96,62.87 26.9,121.64 51.01,179.14 17.44,41.61 37.75,82.1 58.33,122.3 18.85,36.85 44.94,68.8 73.71,98.42 20.71,21.33 38.75,23.61 64.36,8.75 8.21,-4.76 16.09,-10.09 24.5,-15.4 2.78,-21.02 -3.81,-40.59 -9.45,-60.27 -19.41,-67.83 -39.93,-135.36 -57.95,-203.55 -14.36,-54.39 -21.63,-110.22 -25.88,-166.34 -0.28,-3.73 -0.03,-7.5 -0.03,-16.04 7.86,8.32 13.53,13.03 17.59,18.86 21.55,30.86 44.36,61.01 63.69,93.22 57.13,95.14 113.12,190.97 168.72,287.02 6.61,11.41 8.63,25.67 11.81,38.85 5.67,23.46 13.19,30.43 35.89,23.19 32.12,-10.25 60.87,-24.02 69.41,-63.74 14.98,-69.64 21.49,-139.6 15.97,-210.37 -4.62,-59.27 -12.14,-118.34 -18.5,-178.6 1.24,0.23 4.01,-0.06 5.68,1.15 54.29,39.56 108.58,78.93 153.67,129.65 55.04,61.92 86.07,134.55 99.92,215.14 4.51,26.25 5.69,53.06 9.04,79.53 0.86,6.81 4.18,13.31 6.97,21.75 28.67,-13.85 48.16,-30.52 53.05,-61.1 20.41,-127.72 -6.51,-241.4 -99.88,-334.72 -26.12,-26.12 -54.31,-50.36 -83.07,-73.59 -55.45,-44.78 -111.78,-88.5 -168.27,-131.99 -11.51,-8.87 -18.64,-18.73 -22.12,-32.92 -24.63,-100.68 -57.61,-198.7 -99.9,-293.27 -17.83,-39.89 -38.13,-79.25 -62.09,-115.7 -48.4,-73.67 -117.52,-117.13 -205.64,-128.94 -45.96,-6.16 -86.76,4.86 -122.69,34.68 -9.29,7.7 -20.1,14.07 -31.1,19.11 -16.5,7.56 -26.73,19.77 -28.99,37.13 -6.26,48.18 -5.18,95.66 17.03,140.58 27.48,55.55 65.58,103.07 112.83,142.49 33.59,28.01 70.13,52.52 105.62,78.24 35.5,25.73 71.26,51.09 107.05,76.42 8.75,6.19 14.25,13.77 17.16,24.42 13.55,49.54 27.81,98.87 41.81,148.25 0.37,2.11 0.75,4.26 1.13,6.41 16.81,48.72 24.07,85.09 17.59,96.9 -3.74,-7.58 -7.09,-13.84 -9.97,-20.3 -18.69,-41.94 -37.44,-83.92 -64.92,-121 -13.39,-18.07 -28.66,-34.82 -43.78,-51.53 -38.32,-42.33 -118.4,-47.13 -163.72,-10.29 -6.38,5.18 -12.46,10.8 -19.21,15.41 -6.58,4.48 -13.85,7.92 -21.36,12.13 -6.15,-8.81 -11.03,-16.18 -16.26,-23.27 -49.44,-66.94 -142.92,-81.38 -210.19,-32.68 -8.27,5.98 -17.62,10.51 -25.65,16.78 -12.2,9.55 -23.68,20 -36.88,31.28 -3.13,-2.39 -8.42,-6.44 -13.72,-10.48 -58.06,-44.34 -141.72,-49.06 -200.74,-11.83 -19.23,12.12 -33.09,28.21 -42.24,48.89 -3.38,7.62 -8.17,14.63 -14.39,25.59 -6.68,-15.72 -10.66,-27.27 -16.32,-37.95 -10.54,-19.92 -21,-40.02 -33.4,-58.79 -20.61,-31.25 -50.9,-46.33 -88.08,-49.08 -33.73,-2.5 -65.33,1.37 -93.47,22.58 -20.47,15.43 -31.65,35.16 -34.11,60.46 -1.22,12.47 -3.45,24.83 -5.21,37.25 -1.51,0.24 -3.02,0.47 -4.53,0.72 -2.86,-4.11 -5.84,-8.15 -8.56,-12.35 -11.9,-18.35 -23.07,-37.22 -35.75,-55.02 -22.16,-31.08 -53.62,-45.85 -91.14,-48.21 -13.65,-0.87 -27.38,-0.7 -41.07,-0.7 -32.07,0 -60.23,11.1 -85.4,30.51 -4.78,3.68 -9.5,7.44 -14.24,11.16 -10.72,-28.24 -20.97,-55.27 -31.24,-82.3 -1.71,-2.1 -3.55,-4.09 -5.12,-6.3 -55.21,-78.11 -160.4,-90.09 -231.42,-26.34 -3.04,4.19 -6.07,8.37 -9.09,12.56 -4.59,8.99 -9.18,17.98 -13.77,26.97 -3.2,10.42 -5.56,21.17 -9.73,31.18 -16.1,38.71 -14.99,78.5 -9.32,118.91 8.93,63.57 32.98,122.5 54.23,182.4 26.28,74.08 51.74,148.45 76.64,223.01 4.44,13.29 4.44,28.06 6.49,42.14 -1.1,1.29 -2.2,2.58 -3.29,3.87 -7.48,-2.45 -15.87,-3.49 -22.3,-7.6 -23.88,-15.27 -42.91,-35.82 -59.87,-58.4 -43.68,-58.15 -73.58,-123.17 -93.72,-192.56 -10.65,-36.65 -17.91,-74.28 -26.45,-111.52 -0.88,-3.84 -0.02,-8.07 0.04,-12.13 -0.31,-5.57 -0.61,-11.16 -0.93,-16.73 -0.08,-34.26 -0.17,-68.51 -0.27,-102.77 0.36,-2.85 0.72,-5.71 1.08,-8.57 0.96,-11.34 1.92,-22.69 3.11,-36.92 -23.3,-4.32 -47.11,-8.72 -70.9,-13.16 -4.58,-0.85 -9.13,-1.89 -13.69,-2.85 -9.6,-0.2 -19.2,-0.4 -28.8,-0.6 -18.15,2.33 -36.39,4.17 -54.43,7.11 -23.97,3.91 -41.78,19.43 -59.36,34.42 -4.31,3.67 -6.29,11.72 -6.79,17.97 -4.68,59.17 -14.31,118 -12.48,177.62 0.06,1.95 -0.93,3.94 -1.44,5.9 -0.22,4.21 -0.46,8.41 -0.69,12.62 -0.28,8.15 -0.55,16.32 -0.83,24.47 v 21.77 c -1.44,0.11 -2.89,0.23 -4.34,0.35 -3.33,-7.12 -6.66,-14.25 -9.99,-21.37 -22.37,-40 -43.95,-80.48 -67.32,-119.87 -21.3,-35.88 -43.61,-71.25 -67.28,-105.61 -16.87,-24.49 -37.97,-45.96 -68.88,-52.02 -58.5,-11.44 -114.67,-9.93 -161.82,34.11 -5.36,5.01 -11.98,9.82 -18.87,11.85 -20.01,5.92 -30.5,19.61 -35.84,38.71 -1.45,5.19 -3.83,10.12 -5.79,15.17 -0.78,3.51 -1.55,7.02 -3.15,14.19 -4.29,-6.91 -6.57,-10.58 -8.85,-14.25 -7.86,-10.29 -15.74,-20.54 -23.56,-30.84 -23.38,-30.79 -50.99,-56.96 -83.09,-78.67 -45.9,-31.06 -144.54,-36.99 -196.32,32.56 -27.18,36.52 -47.95,76.21 -56.83,121.5 -5.39,27.47 -3.53,54.85 4.2,81.02 9.64,32.68 20.65,65.28 34.79,96.21 26.13,57.19 53.14,114.14 83.27,169.29 23.21,42.48 51.74,82.06 77.94,122.91 3.65,5.69 7.51,11.26 11.27,16.88 2.73,3.21 5.46,6.43 9.8,11.54 -5.01,-0.39 -7.41,-0.58 -9.81,-0.77" /><path
                 id="path6"
                 fill="#050606"
                 d="m 2163.6,2102.6 c 81.25,102.54 115.74,217.18 87.11,346.94 -9.82,44.49 -29.63,84.98 -62.43,117.94 -2.71,5.78 -5.77,6.65 -9.32,0.67 -3.53,-4.1 -7.06,-8.2 -10.59,-12.3 -5.26,-5.76 -10.52,-11.52 -15.78,-17.29 -4.21,-4.19 -8.43,-8.38 -12.64,-12.56 -5.78,-5.27 -11.56,-10.55 -17.34,-15.82 -16.58,-10.77 -32.84,-22.07 -49.8,-32.2 -47.85,-28.62 -101.01,-40.97 -155.3,-49.83 -26.96,-4.39 -53.79,-9.63 -82.47,-14.8 -1.42,-3.58 -3.87,-8.38 -5.29,-13.48 -30.28,-108.73 -60.49,-217.49 -90.55,-326.28 -1.8,-6.51 -2.3,-13.38 -3.4,-20.09 -0.72,-2.84 -1.44,-5.69 -2.15,-8.53 -5.81,-23.16 -11.18,-46.46 -17.58,-69.46 -4.55,-16.38 -10.48,-32.37 -15.8,-48.53 -3.19,-3.09 -6.36,-6.2 -9.55,-9.3 -15.11,-4.12 -30,-9.67 -45.38,-12.07 -39.41,-6.1 -72.5,8.42 -101.75,33.95 -8.23,7.18 -16.48,14.65 -25.79,20.2 -9.28,5.56 -19.88,8.88 -30.52,13.45 -5.12,8.41 -0.32,16.53 2.58,24.8 41.36,118.29 89.26,233.99 136.96,349.81 54.8,133.08 115.15,263.44 182.06,390.83 11.76,22.39 21.85,45.68 32.41,68.69 6.46,14.08 9.64,16.43 25,15.77 21.87,-0.93 38.9,-13.89 54.24,-26.59 6.98,-5.78 8.92,-21.67 7.79,-32.41 -2.71,-25.8 -6.83,-51.74 -13.57,-76.76 -13.71,-50.89 -29.56,-101.21 -44.43,-151.8 -1.53,-5.2 -2.43,-10.58 -3.61,-15.88 -0.44,-1.55 -0.87,-3.09 -1.3,-4.64 1.65,0.05 3.29,0.1 4.94,0.14 35.77,13.38 68.12,32.95 94.53,60.2 27.59,28.47 54.21,58.26 77.96,89.94 15.79,21.07 28.15,45.54 37.8,70.16 11.95,30.48 22.41,62.15 28.32,94.27 10.74,58.25 5.93,115.73 -18.25,170.99 -6.81,15.57 -17.56,22.32 -33.08,22.52 -57.76,0.73 -112.66,-9.49 -163.66,-38.97 -81.03,-46.82 -142.91,-112.39 -190.82,-191.59 -8.89,-14.7 -11.37,-33.37 -16.24,-50.38 -1.84,-6.47 -2.06,-13.39 -2.92,-19.37 -10.01,-6.47 -16.48,-0.91 -23.25,3.82 -27.18,19.02 -50.13,65.39 -37.71,105.7 14.37,46.59 36.14,89.14 69.58,124.5 47.17,49.88 101.29,90.57 168.17,110.33 54.45,16.1 110.61,18.1 167.02,14.79 1.37,-0.08 2.79,-0.11 4.08,-0.49 51.12,-15.07 103.4,-27.13 148.78,-57.18 6.27,-4.15 12.27,-9.66 19.23,-11.68 38.18,-11.08 57.45,-40.5 71.76,-73.98 6.09,-14.27 10.38,-30 11.91,-45.43 10.01,-100.41 -13.75,-192.86 -68.04,-277.67 -2.56,-4.01 -5.18,-7.98 -8.39,-12.93 15.72,-9.07 30.6,-18.4 46.15,-26.48 61.51,-31.95 102.97,-81.53 124.62,-146.51 28.76,-86.34 24.19,-172.75 -6,-258.1 -24.82,-70.21 -66.12,-130.63 -113.36,-187.12 -89.52,-107.06 -204.31,-174.39 -337.93,-210.92 -70.99,-19.4 -143.1,-30.8 -217.11,-29.08 -44.45,1.04 -87.05,9.18 -127.93,26.29 -61.72,25.82 -117.12,62.55 -170.8,101.74 -43.53,31.79 -62.56,76.35 -61.98,130.08 0.54,51.04 11.85,99.28 36.81,143.76 7.91,14.09 18.17,27.64 30.01,38.58 25.39,23.46 50.24,21.2 73.19,-2.24 -6.35,-49.94 -13.4,-97.99 -18.14,-146.28 -1.98,-20.21 0.95,-40.9 1.64,-61.38 0.68,-5.6 1.35,-11.19 2.01,-16.8 1.05,-8.04 1.2,-16.33 3.28,-24.09 21.45,-80.21 101.32,-134.2 185.74,-125.74 190.39,19.07 345.27,105.49 470.21,248.41 8.93,10.22 16.77,21.38 25.12,32.11 3.64,4.55 7.3,9.1 10.94,13.65" /><g
                 id="g16"
                 fill="#fbc30e"><path
                   id="path8"
                   d="m 3759.2,1774.6 c -1.15,0.49 -2.3,0.99 -3.45,1.48 -0.49,-1.15 -1.62,-2.56 -1.3,-3.38 0.33,-0.83 2.12,-1.06 3.27,-1.56 0.49,1.14 0.99,2.3 1.48,3.46 z m -875.71,-31.45 c 0.9,1.5 1.8,3 2.7,4.5 -2.45,0.91 -5.02,2.79 -7.31,2.49 -1.98,-0.27 -3.92,-2.81 -5.23,-4.77 -0.29,-0.45 1.98,-3.71 3.28,-3.86 2.09,-0.24 4.36,1.02 6.56,1.64 z m 540.35,-225.18 c -0.03,1.36 -0.06,2.71 -0.1,4.07 -15.47,-0.07 -27.56,-7.75 -39.02,-16.87 0.61,-1.41 1.21,-2.81 1.81,-4.21 12.44,5.66 24.87,11.33 37.31,17.01 z m -22.67,-45.82 c 16.26,3.08 31.01,9.47 44.14,19.38 -17.25,-0.91 -32,-7.3 -44.14,-19.38 z m 1265.8,61.47 c 0.29,1.55 0.57,3.1 0.85,4.65 -4.12,0.67 -8.83,2.96 -12.24,1.71 -10.57,-3.89 -20.7,-9 -30.87,-13.9 -2.92,-1.4 -5.43,-3.68 -10.39,-7.12 21.75,-1.31 36.35,9.45 52.65,14.66 z M 4607.41,1482 c 24.67,-4.34 60.35,6.18 72.15,20.09 -25,-6.96 -48.57,-13.53 -72.15,-20.09 z m -1089.8,101.46 c -33.19,-6.66 -66.39,-13.27 -99.57,-20 -22.55,-4.58 -44.38,-15.36 -55.11,-26.67 51.41,12.91 103.39,25.96 155.37,39.02 6.77,0.13 13.69,-0.63 20.28,0.53 35.26,6.19 70.66,10.07 106.52,8.35 12.99,0.2 25.98,0.11 38.94,0.68 13.58,0.59 27.15,2.78 40.69,2.5 21.54,-0.44 43.05,-2.73 64.6,-3.57 42.98,-1.66 85.98,-2.86 128.97,-4.26 0.68,-0.02 1.38,-0.01 2.05,-0.09 48.59,-5.98 97.37,-8.14 146.29,-8.11 4.11,0 8.23,0.01 12.33,-0.29 36.65,-2.61 73.31,-5.2 109.95,-7.97 10.82,-0.82 21.58,-2.41 32.41,-3.18 7.64,-0.55 16.12,-3.83 24.89,7.55 -13.15,0.87 -23.47,1.32 -33.72,2.28 -18.27,1.74 -36.47,4.56 -54.78,5.55 -36.11,1.94 -72.27,2.93 -108.41,4.37 -3.39,0.13 -6.78,0.67 -10.16,1.11 -18.19,2.33 -36.32,5.62 -54.58,6.84 -31.98,2.09 -64.04,3.03 -96.07,4.26 -38.88,1.5 -77.76,3.29 -116.64,4.04 -36.31,0.68 -72.63,0.33 -108.94,-0.03 -5.75,-0.05 -11.48,-2.53 -17.22,-3.9 -26.49,-1.33 -53,-2.34 -79.46,-4.09 -16.24,-1.08 -32.42,-3.24 -48.63,-4.92 z m -57.05,-85.51 c -1.77,-0.87 -3.52,-1.75 -5.29,-2.62 1.62,-0.42 3.24,-0.84 4.86,-1.25 22.19,5.36 44.38,10.73 66.57,16.1 -0.39,1.66 -0.77,3.32 -1.16,4.98 -18.96,-3.83 -37.95,-7.48 -56.83,-11.64 -2.99,-0.67 -5.45,-3.66 -8.15,-5.57 z m 1040.6,45.97 c 4.21,-6.36 8.54,-6.23 12.96,-0.22 11.61,0.06 23.25,-0.35 34.84,0.27 25.36,1.37 50.26,5.21 73.33,16.66 7.08,3.52 15.03,6.81 12.12,17.6 -6.22,-0.97 -11.55,-1.81 -16.87,-2.65 -7.76,-0.39 -14.81,-1.94 -17.51,-10.63 -28.65,-4.6 -57.31,-9.2 -85.96,-13.8 -4.5,-0.13 -9,-0.25 -13.5,-0.38 -2.36,-0.13 -4.71,-0.25 -7.06,-0.38 -6.95,1.67 -13.85,4.49 -20.86,4.81 -34.77,1.57 -69.67,-2.28 -104.38,4.11 -15.98,2.94 -32.51,2.87 -48.77,4.34 -10.82,0.98 -21.59,2.74 -32.43,3.29 -11.05,0.59 -22.17,0.14 -34.61,0.14 6.02,-12.19 13.56,-16.22 24.31,-15.9 11.62,0.35 23.32,0.3 34.9,-0.63 26.43,-2.16 52.76,-5.43 79.19,-7.37 26.52,-1.95 53.1,-3.26 79.68,-3.89 7.59,-0.19 15.28,2.95 22.92,4.55 2.57,0.03 5.13,0.06 7.7,0.08 z m -435.64,347.84 c 4.59,-8.99 9.18,-17.98 13.77,-26.98 -31.33,-1.63 -62.64,-3.77 -93.99,-4.79 -55.3,-1.79 -110.64,-2.61 -165.94,-4.44 -18.34,-0.61 -36.66,-2.83 -54.93,-4.79 -33.77,-3.62 -67.43,-8.61 -101.28,-11.16 -33.25,-2.5 -66.69,-2.47 -99.15,-11.66 -3.86,-1.09 -8.15,-0.62 -12.23,-0.97 -33.9,-2.87 -68.48,-2.56 -101.52,-9.52 -37.54,-7.91 -75.59,-9.13 -113.12,-15.33 -9.38,-1.55 -18.8,-3 -28.25,-3.9 -18.98,-1.78 -38.11,-2.31 -56.97,-4.87 -34.96,-4.75 -69.73,-10.79 -104.64,-15.86 -14.79,-2.15 -29.74,-3.3 -44.63,-4.73 -27.06,-2.57 -54.13,-5.05 -81.21,-7.46 -2.7,-0.24 -5.6,-0.29 -8.18,0.39 -13.95,3.73 -26.38,-4.97 -40.02,-4.66 -6.47,0.15 -12.96,-2.86 -19.51,-4 -8.69,-1.51 -17.41,-3.26 -26.18,-3.68 -8.4,-0.41 -16.87,0.74 -26.39,1.27 0.95,-11.19 6.13,-15.14 15.12,-13.57 27.44,4.79 55,5.88 82.76,4.02 3.14,-0.21 6.39,1.82 9.64,2.64 7.09,1.78 14.12,4.14 21.32,5 17.56,2.1 35.28,2.94 52.81,5.26 36.36,4.81 72.54,13.49 108.96,14.57 39.18,1.14 76.77,10.99 115.45,14.22 41.93,3.49 83.6,10.19 125.37,15.54 18.86,2.42 37.68,5.15 56.56,7.37 27.01,3.18 54.04,6.31 81.11,8.93 20.34,1.98 41.14,1.15 61.04,5.05 41.7,8.19 83.63,11.45 125.96,11.64 5.4,0.03 10.77,1.5 16.18,1.98 23.72,2.08 47.43,4.33 71.18,5.93 11.36,0.76 22.83,-0.25 34.2,0.4 14.24,0.83 28.56,1.74 42.59,4.11 13.52,2.3 26.69,3.8 40.11,-0.02 2.49,-0.7 5.44,0.14 8.16,0.4 12.86,1.16 25.69,3.08 38.56,3.4 26.7,0.69 53.43,0.54 80.15,0.74 71.02,-63.75 176.21,-51.77 231.42,26.34 1.57,2.21 3.41,4.2 5.12,6.3 75.14,-6.12 149.85,-14.91 222.1,-37.8 41.33,-13.1 80.78,-30.37 115.91,-56.2 56.24,-41.38 88.3,-97.73 101.34,-165.63 -4.81,-3.78 -2.66,-6.38 1.44,-8.68 0.5,-14.75 1,-29.52 1.51,-44.28 -2,-1.63 -4.96,-2.85 -5.84,-4.95 -11.31,-26.83 -24.13,-52.43 -50.58,-68.02 -1.58,-0.94 -2.4,-3.17 -3.57,-4.79 -5.16,-1.62 -10.37,-3.08 -15.45,-4.89 -36.31,-12.94 -72.61,-25.83 -111.4,-29.31 -19.46,0.15 -38.92,0.29 -58.38,0.44 3.2,2.73 6.18,7.37 9.67,7.79 9.37,1.12 19.16,-0.74 28.42,0.78 9.57,1.56 18.71,5.7 28.04,8.72 1.99,1.1 3.97,2.21 5.96,3.32 -1.48,0.9 -2.97,1.8 -4.44,2.7 -6.12,0.4 -12.43,1.97 -18.34,1.02 -34.59,-5.62 -69.05,-5.62 -103.73,-0.52 -6.99,1.03 -14.61,-2.19 -21.93,-3.5 -3.95,-0.7 -10.1,-3.44 -11.46,-1.9 -8.91,10.08 -20.65,6.79 -31.47,8.46 -24.72,3.81 -48.04,16.42 -74.41,10.62 -4.99,-1.1 -11.15,3.11 -17.23,5 -2.3,-2.75 -5.14,-6.16 -5.25,-6.29 -15.98,-0.9 -28.17,-1.58 -42.27,-2.37 -7.11,9.05 -8.9,9.6 -17.6,0.41 -3.52,-3.72 -5.28,-9.11 -7.84,-13.74 -4.08,0.01 -8.16,0.01 -12.24,0.01 -9.01,5.48 -18.01,10.96 -25.14,15.29 -8.63,-3.67 -15.62,-6.4 -22.34,-9.72 -1.26,-0.63 -1.36,-3.6 -1.99,-5.48 -2.75,0.02 -5.48,0.04 -8.22,0.07 -2.52,2.51 -6.08,7.62 -7.37,7.1 -8.24,-3.32 -14.2,-0.33 -20.51,4.54 -5.89,4.54 -12.92,7.63 -18.66,12.33 -6.48,5.31 -12.28,5.82 -17.95,-0.25 -9.48,-10.15 -20.58,-7.89 -31.86,-5.73 -0.39,5.27 -0.72,9.61 -1.24,16.82 -12.19,-3.3 -22.32,-6.05 -33.56,-9.1 -4.79,1.97 -10.8,5.94 -17.23,6.8 -28.54,3.85 -56.9,12.01 -86.1,5.27 -15.07,7.12 -31.62,-2.33 -47.52,5.22 -7.85,3.73 -23.24,3.37 -28.48,-1.87 -8.18,-8.2 -18.23,-10.78 -26.91,-16.59 l -28.77,0.03 c -4.31,1.37 -8.57,3.77 -12.93,3.96 -12.19,0.51 -24.4,0.11 -36.61,0.07 -42.59,-1.36 -85.19,-2.43 -127.75,-4.19 -20.21,-0.84 -40.37,-2.91 -60.53,-4.68 -1.72,-0.14 -3.29,-2.14 -4.93,-3.27 -5.42,-0.09 -10.84,-0.19 -16.26,-0.27 -2.82,-1.11 -5.62,-2.22 -8.44,-3.33 -20.37,-3.58 -40.73,-7.14 -61.1,-10.71 -35,-6.36 -45.67,-10.53 -56.24,-22.41 h 10.4 c 3.71,-8.28 10.24,-9.7 18.25,-7.48 48.62,-5.53 97.23,-11.05 145.85,-16.58 2.26,-4.47 4.93,-6.29 8.61,-1.29 131.95,-15.61 244.81,-67.32 328.22,-174.2 16.1,-20.61 29.86,-42.71 34.64,-69.15 0.36,-2.02 1.08,-3.98 1.37,-6.01 3.38,-23.28 -6.67,-34.04 -30.6,-32.85 -0.06,3.3 -3.61,8.09 -10.83,14.47 -4.71,4.16 -9.48,8.26 -15.85,13.8 5.58,20.77 -4.49,36.52 -22.01,51.61 -47,40.46 -102.35,62.8 -161.02,78.65 -59.11,15.97 -119.72,21.51 -180.6,25.79 -42.27,2.97 -84.5,7.21 -126.53,12.62 -25.09,3.22 -46.54,15.93 -63.98,34.43 -13.53,14.36 -28.87,27.8 -39.11,44.32 -27.64,44.6 -25.6,100.93 26.45,132.09 28.03,16.78 58.41,26.9 89.74,34.55 67.48,16.46 136.19,23.71 205.49,25.4 101.44,2.49 202.74,-0.82 303.98,-7.65 77.89,-5.24 155.88,-9.03 233.78,-14.2 85.38,-5.64 170.67,-12.7 256.08,-18.04 54.13,-3.37 108.34,-2.19 161.32,11.01 17.02,4.24 33.71,11.64 49.01,20.32 10.31,5.84 19.16,15.53 26.39,25.2 8.47,11.34 6.52,16.99 -4.59,26.12 -5.79,4.77 -11.69,9.4 -17.54,14.08 6.27,3.55 4.98,7.75 0.15,10.9 -5.61,3.65 -11.63,6.92 -17.86,9.33 -15.61,6.02 -31.43,11.48 -47.17,17.17 -6.55,1.53 -13.15,2.87 -19.63,4.63 -19.44,5.32 -38.82,10.79 -58.22,16.19 -0.7,4.62 0.16,10.65 -2.45,13.55 -3.86,4.29 -9.87,7.74 -15.55,9.05 -11.2,2.61 -15.17,-6.31 -19,-14.52 -1.38,0.05 -2.76,0.09 -4.15,0.14 -3.92,6.02 -6.55,15.07 -12.05,17.43 -9.39,4.03 -19.45,8.32 -31.25,4.92 -10.83,-3.12 -23.39,-5.83 -33.9,-3.32 -22.92,5.47 -49.81,-1.33 -68.12,20.13 -1.42,1.65 -5.16,1.18 -7.72,2 -11.18,3.58 -21.21,0.33 -32.24,-2.52 -11.67,-3.02 -24.84,-0.23 -40.12,0.07 -10.91,11.75 -36.32,15.58 -58.51,6.35 -1.26,0.05 -2.52,0.07 -3.79,0.03 -16.55,8.15 -31.01,3.09 -44.64,-9.85 -9.25,16.47 -21.93,16.11 -36.9,12.07 -0.37,-6.52 -0.71,-12.48 -1.04,-18.42 -1.28,-0.15 -2.55,-0.23 -3.83,-0.27 -9.48,0.67 -18.95,1.45 -28.45,1.92 -3.19,0.15 -6.46,-0.25 -9.62,-0.82 -8.49,-1.54 -16.88,-4.46 -25.39,-4.79 -46.22,-1.79 -92.47,-2.72 -138.7,-4.44 -20.32,-0.76 -40.61,-2.52 -60.89,-4.23 -3.02,-0.26 -5.87,-2.71 -8.8,-4.14 -5.45,-0.04 -10.89,-0.08 -16.33,-0.13 -1.08,3.09 -2.14,6.16 -4.09,11.78 19.46,2.68 37.28,5.14 55.09,7.61 -25.13,8.94 -49.15,4.36 -74.53,-0.35 3.91,-6.13 6.85,-10.75 11.53,-18.08 -15.46,-1.77 -28.1,-3.6 -40.81,-4.58 -22.37,-1.73 -44.8,-2.79 -67.17,-4.52 -4.66,-0.37 -9.9,-1.51 -13.52,-4.14 -3.19,-2.31 -4.48,-7.22 -6.6,-10.99 -2.62,-0.11 -5.24,-0.23 -7.86,-0.34 -0.59,3.18 -1.17,6.37 -2.06,11.18 -46.01,-5.37 -90.98,-10.83 -136.01,-15.82 -40.46,-4.49 -80.97,-8.38 -121.44,-12.72 -14.82,-1.59 -29.95,-2.31 -44.28,-6.01 -18.07,-4.66 -36.04,-6.77 -54.56,-6.22 -7.45,0.22 -14.98,-0.46 -22.41,-1.25 -33.7,-3.63 -67.38,-7.42 -101.06,-11.15 -6.8,-1.31 -13.61,-2.62 -20.41,-3.93 -3.97,1.79 -10.51,2.7 -11.46,5.52 -3.84,11.34 -12.4,12.09 -21.32,10.52 -8.1,-1.42 -18.24,-0.93 -20.78,-12.43 -1.86,-8.42 -6.98,-8.68 -13.62,-5.4 0.99,4.43 1.89,8.47 3.52,15.7 -22.32,-2.22 -42.19,-4.19 -62.53,-6.22 -0.48,-6.93 -0.8,-11.57 -1.13,-16.2 -1.36,-1.34 -2.73,-2.68 -4.09,-4.03 -7.39,0.37 -15.17,-0.83 -20.31,6.86 -1.14,1.7 -5.36,3.53 -6.35,2.81 -8.53,-6.21 -21.87,-0.38 -28.38,-11.43 -0.36,-0.62 -2.49,-0.2 -3.81,-0.28 -2.7,3.52 -5.39,7.03 -8.4,10.97 -15.1,-9.29 -27.92,-22.36 -47.05,-13.45 -2.64,1.23 -7.4,-2.2 -11.21,-3.36 -3.09,-0.94 -6.2,-2.28 -9.36,-2.44 -13.18,-0.7 -26.38,-1.32 -39.58,-1.31 -5.22,0 -10.72,1 -15.59,2.86 -5.5,2.11 -10.74,8.46 -15.53,7.92 -5.37,-0.6 -10.1,-6.85 -11.79,-8.13 -12.72,-0.7 -21.93,-1.27 -31.14,-1.67 -11.99,-0.53 -25.39,-4.57 -35.66,-0.61 -20.2,7.8 -39.94,0.96 -59.7,3.11 -17.54,1.9 -35.16,2.96 -52.76,4.17 -7.65,0.52 -15.32,0.44 -19.12,-8.26 -6.86,1.41 -13.71,2.81 -20.57,4.2 -0.39,8.38 -6.39,8.28 -12.38,8.2 -2.71,0.07 -5.42,0.13 -8.13,0.2 -2.48,2.64 -4.51,6.07 -7.52,7.72 -4,2.18 -8.76,2.99 -13.2,4.39 l 0.02,-0.03 c -1.38,11.34 -10.08,7.56 -16.69,8.08 -2.64,0.08 -5.29,0.15 -7.93,0.23 -1.94,6.09 -1.48,15.88 -12.41,8 -14.05,5.32 -28.1,10.65 -42.15,15.98 -1.13,0.19 -2.03,0.75 -2.72,1.67 -3.54,10.59 -9.48,18.45 -21.77,19.04 -1.18,0.28 -2.11,0.92 -2.82,1.9 -4.87,11.34 -12.45,19.84 -24.62,23.54 -42.46,42.4 -62.31,94.4 -61.51,153.59 0.53,39.09 17.01,71.59 51.35,92.8 9.01,5.55 18.86,11.87 30.22,4.46 -3.31,-1.99 -6.62,-3.98 -9.92,-5.97 0.4,-0.71 0.79,-1.43 1.19,-2.15 2.87,1.6 5.73,3.19 8.6,4.78 1.35,-0.3 2.69,-0.62 4.04,-0.92 2.68,-3.11 5.35,-6.22 8.04,-9.32 -0.48,-1.13 -0.28,-2.1 0.61,-2.94 -0.34,-4.11 -0.68,-8.21 -1.02,-12.31 -4.09,-6.77 -8.17,-13.52 -12.26,-20.29 -1.32,-2.84 -2.64,-5.7 -3.96,-8.55 -9.55,-15.09 -11.77,-32 -12.07,-49.36 0.13,-9.6 0.25,-19.21 0.38,-28.81 1.31,-35.84 22.23,-57.18 52.79,-71.38 4.28,-2.4 8.55,-4.79 12.83,-7.2 28.96,-18 61.41,-26.38 94.32,-32.32 56.17,-10.15 112.89,-10.63 169.69,-6 21.77,1.78 43.52,3.69 65.28,5.53 4.11,0.22 8.22,0.42 12.34,0.64 33.36,2.87 66.82,4.86 100.06,8.76 97.84,11.46 195.6,23.56 293.35,35.63 67.89,8.39 135.74,17.14 203.58,25.82 4.04,0.52 7.96,1.93 11.93,2.91 2.74,0.22 5.48,0.43 8.22,0.64 36.67,3.97 73.32,8.16 110.02,11.85 59.87,6.04 119.68,12.93 179.67,17.29 88.65,6.43 177.44,11.07 266.18,16.23 24.57,1.42 49.2,1.98 73.81,2.93" /><path
                   id="path10"
                   d="m 2629.7,3418.5 c -7.32,-4.57 -14.08,-11.29 -22.04,-13.32 -23.66,-6.05 -47.7,-10.76 -71.77,-14.98 -12.02,-2.11 -24.42,-2.32 -36.68,-2.82 -6.76,-0.27 -13.58,0.48 -20.36,1.09 -7.47,0.67 -14.89,1.91 -22.36,2.55 -27.17,2.32 -54.71,2.45 -81.44,7.16 -48.8,8.61 -96.95,23.49 -135.67,54.43 -50.83,40.62 -72.64,88.63 -49.02,157.65 5.7,16.66 18.46,32.32 31.48,44.78 35.67,34.14 78.92,44.68 126.91,32.76 51.95,-12.9 87.1,-47.28 112.09,-92.58 31.25,-56.62 67.58,-108.98 116.13,-152.4 15.06,-13.46 32.63,-18.63 52.15,-20.08 0.19,-1.41 0.38,-2.82 0.58,-4.24" /><path
                   id="path12"
                   d="m 2714.7,3304.2 c -5.1,-4.45 -8.26,-7.66 -11.86,-10.27 -28.97,-21.04 -50.37,-49.18 -65.25,-80.61 -20.37,-43.05 -36.6,-88.09 -53.82,-132.59 -13.79,-35.66 -25.24,-72.26 -39.93,-107.53 -9.99,-23.97 -23.72,-46.23 -48.89,-58.48 -19.97,-9.72 -42.93,-7.2 -59.08,7.59 -27.01,24.77 -46.33,55.73 -53.3,90.57 -9.65,48.29 -5.87,97.28 21.44,140.57 26.89,42.64 62.53,77.08 103.08,107.43 29.29,21.92 61.52,35.22 95.72,45.05 31.31,8.99 63.55,8.33 95.71,5.4 3.3,-0.3 6.53,-1.92 9.68,-3.19 1.81,-0.74 3.4,-2.03 6.5,-3.94" /><path
                   id="path14"
                   d="m 4863.7,3232.4 c 27.67,11.22 48.03,31.35 65.83,53.98 34.69,44.08 69.12,88.38 102.67,133.32 20.03,26.85 37.39,55.7 57.36,82.59 30.86,41.56 71.46,68.63 122.58,80.08 33.02,7.4 58.79,-16.18 67.18,-38.01 8.18,-21.3 9.22,-43.31 2.89,-66.29 -16.14,-58.46 -53.54,-100.56 -100.11,-136.32 -8.67,-6.66 -17.03,-13.75 -25.36,-20.85 -34.06,-29.03 -74.32,-46.33 -116.63,-57.99 -47.94,-13.23 -96.65,-23.71 -145.23,-34.53 -9.43,-2.1 -19.74,-0.3 -29.66,-0.3 -0.5,1.44 -1.01,2.88 -1.52,4.32" /></g><path
                 id="path18"
                 fill="#080909"
                 d="m 2890.1,3412.2 c 87.77,2.2 173.09,4.35 259.46,6.51 0.49,1.88 1.67,4.33 1.71,6.8 1.27,69.19 2.62,138.37 3.48,207.56 0.22,17.78 -1.63,35.59 -1.61,53.38 0.01,17.64 5.74,25.99 16.45,26.5 11.5,0.55 18.03,-8.1 18,-26.97 -0.12,-63.03 -0.89,-126.06 -1.25,-189.09 -0.44,-76.06 -1.32,-152.13 -0.86,-228.19 0.31,-49.99 1.98,-99.99 4.43,-149.93 0.96,-19.53 -7.09,-25.7 -15.89,-26 -11.11,-0.38 -17.98,8.02 -18.32,24.8 -1.65,80.81 -2.91,161.63 -4.27,242.44 -0.13,7.4 -0.02,14.79 -0.02,24.05 -88.06,-1.98 -174.03,-3.91 -261.34,-5.87 -0.58,-9.59 -1.39,-17.65 -1.5,-25.72 -1.05,-76.73 -2.48,-153.47 -2.56,-230.21 -0.02,-17.91 -5.94,-25.34 -16.36,-25.98 -10.97,-0.67 -17.86,8.61 -17.73,25.2 0.52,61.66 1.39,123.31 2.28,184.97 0.41,28.09 0.89,56.18 1.84,84.26 2.06,60.22 4.87,120.42 6.54,180.65 1,36.3 0.41,72.63 0.61,108.96 0.04,6.84 0.02,13.74 0.8,20.52 0.97,8.4 5.91,13.78 14.52,14.85 8.14,1.01 15.17,-4.69 17.33,-14.21 0.9,-3.95 0.83,-8.18 0.83,-12.27 -0.03,-40.44 0.63,-80.89 -0.47,-121.3 -1.13,-41.72 -4.07,-83.4 -6.04,-125.1 -0.42,-8.85 -0.06,-17.74 -0.06,-30.61" /><path
                 id="path20"
                 fill="#090a0a"
                 d="m 3551.6,3406.7 c -3.7,41.72 -52.28,224.86 -65.15,241.24 -24.55,-82.46 -48.6,-163.25 -72.82,-244.61 46.5,1.13 91.36,2.23 137.97,3.37 z m -153.02,-41.99 c -19.72,-69.37 -39.07,-138.5 -59.19,-207.4 -5.54,-18.97 -12.89,-37.47 -20.34,-55.81 -4.34,-10.66 -12.9,-14.3 -21.21,-10.63 -9.03,3.99 -10.86,11.6 -9.36,20.54 0.22,1.33 0.65,2.65 1.11,3.95 28.73,81.99 48.12,166.78 74.7,249.44 20.3,63.13 39.1,126.74 59.17,189.96 13.22,41.65 27.16,83.09 41.6,124.34 3.07,8.76 8.99,16.86 14.91,24.19 7.07,8.74 17.7,8.62 24.44,-0.81 5.87,-8.2 10.76,-17.68 13.65,-27.32 11.4,-37.96 22.66,-76 32.45,-114.39 19.1,-74.84 37.69,-149.81 55.49,-224.96 9.6,-40.6 16.67,-81.8 25.76,-122.52 8.92,-39.99 18.97,-79.72 28.53,-119.57 -19.84,-7.82 -20.94,-8.42 -30.84,8.49 -7.11,12.13 -12.76,25.74 -15.95,39.42 -13.06,55.97 -24.85,112.24 -37.27,168.36 -4.39,19.89 -9.24,39.68 -13.91,59.67 -54.66,2.8 -107.76,3.78 -163.74,-4.95" /><path
                 id="path22"
                 fill="#fbc30e"
                 d="m 5084.3,3176.8 c 83.47,39.49 164.51,37.78 244.73,2.63 56.83,-24.9 88.91,-70.24 99.2,-131.66 4.66,-27.84 2.35,-53.41 -16.82,-75.09 -18.47,-20.87 -41.83,-33.04 -70.24,-30.88 -8.11,0.61 -17.78,5.22 -23.26,11.19 -12.79,13.95 -26.16,28.52 -34.41,45.25 -14.55,29.52 -29.41,59.22 -50.29,84.07 -27.57,32.84 -58.83,62.87 -101.69,76.64 -14.79,4.76 -29.13,10.96 -47.22,17.85" /><path
                 id="path24"
                 fill="#070809"
                 d="m 3786.6,3403.6 c 2.96,-1.02 4.22,-1.82 5.49,-1.84 72.92,-1.13 135.78,21.08 183.53,78.76 35.37,42.71 46.97,90.41 30.36,143.85 -2.36,7.59 -6.2,16.09 -12.02,20.97 -22.72,19.03 -48.05,36.19 -77.42,40.06 -43.3,5.71 -86.77,0.19 -129.94,-8.06 z m -0.79,-36.84 c 0,-58.85 0.01,-114.3 -0.01,-169.73 0,-26.73 -0.01,-53.46 -0.1,-80.19 -0.02,-5.47 0.26,-11.07 -0.77,-16.39 -1.78,-9.21 -9.24,-15.16 -17.32,-14.24 -8.46,0.97 -13.78,6.03 -15.03,14.41 -0.81,5.38 -0.63,10.93 -0.62,16.41 0.3,183.67 0.63,367.34 0.93,551.01 0.01,7.54 -0.57,15.07 -0.43,22.6 0.25,12.82 5.14,19.04 18.06,20.51 48.23,5.48 96.43,12.24 145.18,8.96 6.71,-0.46 13.44,-2.23 19.9,-4.21 27.09,-8.28 51.06,-22.52 74.18,-38.6 12.47,-8.66 20.52,-20.24 25.39,-33.9 19.68,-55.27 18.86,-108.97 -15.79,-158.68 -12.47,-17.9 -26.78,-34.56 -40.89,-51.26 -12.11,-14.32 -27.89,-23.57 -44.57,-32.21 -45.85,-23.75 -94.15,-36.34 -148.11,-34.49" /><path
                 id="path26"
                 fill="#070809"
                 d="m 4182.1,3680.5 v -277.13 c 2.85,-0.73 4.77,-1.65 6.68,-1.66 71.95,-0.2 134.37,21.46 181.64,78.6 35.32,42.71 47.11,90.3 30.79,143.84 -3.18,10.46 -7.92,20.51 -18.08,26.52 -14.69,8.67 -29.11,17.85 -44.17,25.82 -14.04,7.42 -29.26,11.54 -45.42,10.61 -36.77,-2.13 -73.55,-4.35 -111.44,-6.6 z m -0.69,-315.79 v -195.82 c -11.25,-1.37 -21.18,-2.58 -33.2,-4.04 -0.4,6.1 -1.13,11.96 -1.12,17.82 0.21,160.46 0.51,320.91 0.76,481.36 0.01,8.91 -0.53,17.82 -0.37,26.72 0.23,12.81 5.15,19.01 18.1,20.49 47.57,5.42 95.12,12.33 143.19,8.84 10.7,-0.77 22.07,-2.85 31.57,-7.51 22,-10.78 43.11,-23.41 64.46,-35.5 13.99,-7.92 21.34,-21.38 26.24,-35.65 18.81,-54.76 17.52,-107.91 -16.79,-156.86 -12.53,-17.88 -26.86,-34.55 -40.98,-51.24 -12.12,-14.33 -27.97,-23.49 -44.66,-32.12 -44.08,-22.82 -90.36,-35.28 -140.07,-34.66 -1.89,0.02 -3.79,-0.94 -7.13,-1.83" /><path
                 id="path28"
                 fill="#080909"
                 d="m 4669.6,3435 c 14.69,10.94 21.77,24.42 29.54,36.96 29.18,47.11 58.52,94.15 86.14,142.17 14.64,25.43 25.81,52.84 38.69,79.29 2.38,4.88 4.39,11.23 8.49,13.66 5.21,3.09 12.76,4.8 18.59,3.61 7.5,-1.55 10.27,-9.24 8.63,-16.48 -1.64,-7.22 -4.8,-14.19 -7.85,-21.01 -28.35,-63.18 -63.21,-122.9 -98.87,-182.07 -17.64,-29.26 -38.37,-56.68 -58.22,-84.56 -5.44,-7.64 -7.86,-15.07 -7.83,-24.52 0.2,-48.68 0.08,-97.35 -0.66,-146.02 -0.63,-41.79 -2.11,-83.57 -3.5,-125.34 -0.46,-13.93 -6.91,-21.24 -17.25,-20.94 -10.22,0.29 -16.27,7.53 -16.31,21.81 -0.08,26.05 0.59,52.09 1.02,78.14 1.01,62.35 1.98,124.71 3.21,187.06 0.18,9.23 -2.46,16.67 -7.24,24.75 -10.41,17.64 -18.67,36.55 -28.19,54.73 -15.23,29.08 -31.88,57.47 -45.89,87.11 -21.91,46.38 -42.29,93.49 -62.94,140.45 -5.18,11.77 -2.14,20.35 6.91,24.38 8.03,3.57 16.45,0.92 21.97,-9.67 9.17,-17.56 17.4,-35.66 25.09,-53.94 20.94,-49.88 43.13,-99.07 71.38,-145.41 8.87,-14.54 15.07,-30.7 22.96,-45.87 3.21,-6.18 7.71,-11.7 12.13,-18.29" /><path
                 id="path30"
                 fill="#050606"
                 d="m 2779.5,2909 c 13.22,-4.96 26.67,-9.4 39.58,-15.06 8.06,-3.53 14.98,-9.66 23.01,-13.28 9.94,-4.48 13.05,-11.26 10.39,-21.37 -0.86,-3.3 -1.38,-6.74 -2.58,-9.91 -13.37,-35.29 -29.77,-69.1 -51.39,-100.09 -14.74,-21.12 -35.23,-24.16 -56.8,-9.58 -2.82,1.91 -5.09,4.94 -8.13,6.18 -19.78,8.04 -22.29,23.22 -17.93,41.57 7.1,29.88 12.8,60.19 21.59,89.56 6.94,23.2 17.5,28.89 42.26,31.98" /><path
                 id="path32"
                 fill="#fcd030"
                 d="m 4522,1460.8 c 19.46,-0.15 38.92,-0.29 58.37,-0.44 11.55,-6.99 23.67,-3.28 35.66,-1.81 15.47,1.89 30.93,3.92 46.39,5.88 -3.39,-2.56 -6.47,-6.76 -10.21,-7.45 -24.17,-4.41 -48.37,-10.31 -72.78,-11.52 -69.08,-3.43 -138.08,-1.4 -206.96,6.31 -40.71,4.56 -81.72,6.43 -122.58,9.78 -60.6,4.98 -121.19,10.34 -181.8,15.24 -25.21,2.04 -50.47,3.15 -75.69,5.01 -37.47,2.75 -74.91,5.79 -112.36,8.71 1.11,6.98 4.55,11.36 12.28,10.76 14.57,-1.11 29.13,-2.63 43.71,-3.19 5.27,-0.21 11.38,0.48 15.77,3.06 10.49,6.15 20.82,3.2 28.9,-2.09 6.95,-4.54 11.94,-4.49 18.69,-2.01 6.14,2.27 16.67,6.92 18.21,4.96 8.27,-10.5 20.76,-5.66 29.93,-10.44 18.96,-9.9 39.84,-7.75 59.71,-9.12 10.59,-0.72 21.29,-0.35 31.81,-2.94 9.88,-2.42 19.88,-5.34 29.14,1.97 2.74,-0.03 5.47,-0.05 8.22,-0.07 9.8,-0.48 19.19,0.51 28.55,-6.22 5.55,-3.98 17.23,-6.96 20.92,6.13 4.08,0 8.16,0 12.24,-0.01 3.15,-6.32 7.85,-7.01 14.96,-7.3 17.55,-0.7 34.5,10.55 53.15,0.53 5.17,-2.77 14.7,1.45 20.62,-6.85 1.66,-2.32 9.11,-2.1 13.15,-0.78 6.9,2.27 13.23,6.33 18.37,8.92 12.9,-4.25 24.48,-10.06 36.63,-11.66 27.29,-3.59 54.82,-5.98 82.33,-7.1 14.82,-0.61 29.78,2.37 44.67,3.74" /><path
                 id="path34"
                 fill="#fcd338"
                 d="m 2580.1,1666.5 c 6.86,-1.39 13.71,-2.79 20.57,-4.2 37.86,-8.03 75.69,-16.61 114.68,-16.28 25.33,0.23 50.75,3.24 75.93,1.71 18.02,-1.09 34.87,0.74 51.87,5.51 3.21,0.9 6.78,0.73 10.18,0.75 21.8,0.08 43.6,-0.1 65.4,0.15 15.56,0.18 31.43,-2.09 46,6.54 3.02,1.79 8.13,1.4 11.84,0.41 16.43,-4.38 28.34,3.73 39.84,13.45 1.36,1.35 2.73,2.69 4.09,4.03 13.22,0.25 27.53,0.68 39.37,-1.71 13.23,-2.65 25.69,-2.14 38.13,-1.2 8.77,0.67 11.57,-5.04 16.72,-8.54 -13.94,-2.42 -27.8,-5.69 -41.84,-7.11 -59.13,-5.94 -118.24,-12.32 -177.5,-16.65 -71.61,-5.26 -143.41,-8.42 -215.21,-4.56 -74.38,4 -143.71,24.9 -205.94,66.85 -5.43,3.67 -9.7,9.05 -14.52,13.63 14.05,-5.34 28.1,-10.67 42.15,-15.99 4.14,-2.67 8.27,-5.33 12.41,-8 2.64,-0.08 5.29,-0.15 7.93,-0.23 1.69,-10.7 10.1,-7.51 16.69,-8.08 l -0.02,0.03 c 2.61,-12.31 2.61,-12.31 20.72,-12.11 2.71,-0.07 5.42,-0.13 8.13,-0.2 4.13,-2.73 8.25,-5.46 12.38,-8.2" /><path
                 id="path36"
                 fill="#fbc717"
                 d="m 4168.2,1481.4 c -9.26,-7.31 -19.26,-4.39 -29.14,-1.97 -10.52,2.59 -21.22,2.22 -31.81,2.94 -19.87,1.37 -40.75,-0.78 -59.71,9.12 -9.17,4.78 -21.66,-0.06 -29.93,10.44 -1.54,1.96 -12.07,-2.69 -18.21,-4.96 -6.75,-2.48 -11.74,-2.53 -18.69,2.01 -8.08,5.29 -18.41,8.24 -28.9,2.09 -4.39,-2.58 -10.5,-3.27 -15.77,-3.06 -14.58,0.56 -29.14,2.08 -43.71,3.19 -7.73,0.6 -11.17,-3.78 -12.28,-10.76 -2.63,0.13 -5.26,0.27 -7.9,0.41 -6.12,10.75 -16.44,9.29 -26.05,8.23 -6.93,-0.76 -13.72,-3.43 -15.29,6.86 8.68,5.81 18.73,8.39 26.91,16.59 5.24,5.24 20.63,5.6 28.48,1.87 15.9,-7.55 32.45,1.9 47.52,-5.22 29.2,6.74 57.56,-1.42 86.1,-5.27 6.43,-0.86 12.44,-4.83 17.23,-6.8 11.24,3.05 21.37,5.8 33.56,9.1 0.52,-7.21 0.85,-11.55 1.24,-16.82 11.28,-2.16 22.38,-4.42 31.86,5.73 5.67,6.07 11.47,5.56 17.95,0.25 5.74,-4.7 12.77,-7.79 18.66,-12.33 6.31,-4.87 12.27,-7.86 20.51,-4.54 1.29,0.52 4.85,-4.59 7.37,-7.1" /><path
                 id="path38"
                 fill="#fcca18"
                 d="m 3168.2,1691 c 33.68,3.74 67.36,7.53 101.06,11.16 7.43,0.79 14.96,1.47 22.41,1.25 18.52,-0.55 36.49,1.56 54.56,6.22 14.33,3.7 29.46,4.42 44.28,6.01 40.47,4.34 80.98,8.23 121.44,12.72 45.03,4.99 90,10.45 136.01,15.82 0.89,-4.81 1.47,-8 2.06,-11.19 -5.62,-1.82 -11.25,-3.63 -16.87,-5.43 -8.25,-0.9 -16.5,-1.8 -24.75,-2.7 -5.95,4.95 -11.46,5.02 -16.4,-1.45 -8.22,-0.99 -16.43,-1.98 -24.65,-2.98 -6.12,5.38 -11.75,5.66 -16.65,-1.61 -8.14,-0.92 -16.28,-1.84 -24.42,-2.76 -6.33,5.37 -12.12,6.36 -16.71,-2.12 -5.43,-0.55 -10.86,-1.11 -16.29,-1.67 -6.24,5.33 -11.91,5.74 -16.64,-1.92 -5.43,-0.72 -10.86,-1.43 -16.29,-2.15 -7.56,4.52 -14.87,7.12 -20.72,-2.5 -5.43,-0.56 -10.86,-1.13 -16.29,-1.7 -6.34,5.29 -12.06,5.87 -16.64,-2.19 -5.43,-0.63 -10.86,-1.25 -16.28,-1.88 -6.27,5.31 -11.94,5.7 -16.64,-2.02 -5.43,-0.68 -10.86,-1.38 -16.29,-2.06 -6.24,5.25 -11.91,5.77 -16.63,-1.96 -6.78,-0.76 -13.58,-1.51 -20.36,-2.26 -6.36,5.17 -12.12,5.97 -16.65,-2.28 -5.44,-0.56 -10.88,-1.13 -16.32,-1.68 -6.37,5.18 -12.09,5.77 -16.6,-2.34 -5.42,-0.64 -10.84,-1.29 -16.26,-1.92 -5.91,1.83 -12.9,12.43 -16.81,-2.07 -5.27,-0.44 -10.54,-0.89 -15.8,-1.33 -9.51,9.94 -13.71,9.33 -25.14,-3.67 -2.58,-0.2 -5.16,-0.39 -7.75,-0.6 -0.32,2.55 -0.65,5.1 -1.06,8.37 -5.77,-1.83 -10.96,-3.47 -17.32,-5.48 -1.05,4.99 -1.82,8.67 -2.59,12.37" /><path
                 id="path40"
                 fill="#fcca18"
                 d="m 4176.4,1789.7 c 22.19,9.23 47.6,5.4 58.51,-6.35 15.28,-0.3 28.45,-3.09 40.12,-0.07 11.03,2.85 21.06,6.1 32.24,2.52 2.56,-0.82 6.3,-0.35 7.72,-2 18.31,-21.46 45.2,-14.66 68.12,-20.13 10.51,-2.51 23.07,0.2 33.9,3.32 11.8,3.4 21.86,-0.89 31.25,-4.92 5.5,-2.36 8.13,-11.41 12.05,-17.43 -19.21,2.04 -38.46,3.73 -57.59,6.36 -5.84,0.8 -10.63,2.3 -12.67,-5.01 -2.49,0.15 -4.97,0.31 -7.46,0.46 -3.82,2.11 -7.45,5.6 -11.49,6.16 -22.88,3.17 -45.84,5.89 -68.82,8.24 -8.58,0.87 -17.3,0.14 -25.94,0.5 -11.95,0.51 -23.94,1.04 -35.81,2.38 -1.99,0.23 -3.52,4.59 -5.33,7.15 -12.38,-11.3 -19.85,-13.49 -33.19,-4.59 -9.74,6.49 -17.41,8.63 -27.7,-1.23 0.86,10.14 1.47,17.39 2.09,24.64" /><path
                 id="path42"
                 fill="#fcd030"
                 d="m 3559.3,1497.9 c 1.64,1.13 3.21,3.13 4.93,3.27 20.16,1.77 40.32,3.84 60.53,4.68 42.56,1.76 85.16,2.83 127.75,4.19 0.13,-4.82 0.27,-9.63 0.41,-14.44 -8.13,-0.48 -16.26,-1.36 -24.39,-1.38 -79.97,-0.16 -159.62,-3.99 -238.09,-20.91 -13.3,-2.86 -26.32,-7.09 -39.41,-10.88 -4.19,-1.21 -7.67,-3.34 -5.13,-8.73 -8,-2.22 -14.53,-0.8 -18.24,7.48 14.97,5.42 29.93,10.85 44.9,16.28 11.22,2.68 22.51,5.11 33.64,8.12 9.56,2.56 18.94,5.79 28.4,8.73 2.82,1.1 5.62,2.21 8.44,3.32 5.51,-5.65 10.93,-5.48 16.26,0.27" /><path
                 id="path44"
                 fill="#fcd746"
                 d="m 4176.4,1789.7 c -0.62,-7.25 -1.23,-14.5 -2.09,-24.64 10.29,9.86 17.96,7.72 27.7,1.23 13.34,-8.9 20.81,-6.71 33.19,4.59 1.81,-2.56 3.34,-6.92 5.33,-7.15 11.87,-1.34 23.86,-1.87 35.81,-2.38 8.64,-0.36 17.36,0.37 25.94,-0.5 22.98,-2.35 45.94,-5.07 68.82,-8.24 4.04,-0.56 7.67,-4.05 11.49,-6.16 -25.1,1.15 -50.19,2.51 -75.28,3.4 -42.19,1.51 -84.38,3.32 -126.58,3.9 -42.1,0.58 -84.22,-0.27 -126.33,-0.32 -6.07,-0.01 -12.13,0.99 -18.21,1.52 5.66,10.83 16.11,6.73 23.61,5.48 12.91,-2.16 20.66,2.24 26.4,12.83 1.28,0.04 2.55,0.12 3.83,0.27 7.58,-2.81 15.36,-5.17 22.7,-8.5 22.31,-10.12 50.66,1.43 59.88,24.7 1.27,0.04 2.53,0.02 3.79,-0.03" /><path
                 id="path46"
                 fill="#fcca18"
                 d="m 4086.2,1773.3 c -5.74,-10.59 -13.49,-14.99 -26.4,-12.83 -7.5,1.25 -17.95,5.35 -23.61,-5.48 -15.01,-0.49 -30.02,-0.98 -45.04,-1.46 -14.05,4.6 -28.01,7.22 -41.5,-1.74 l -44.91,-2.31 c -9.88,4.98 -19.58,6.53 -28.79,-1.48 -10.98,-0.87 -21.96,-1.75 -32.92,-2.63 -5.72,1.14 -11.41,2.79 -17.18,3.27 -5.77,0.48 -10.92,0.82 -11.5,8.16 2.93,1.43 5.78,3.88 8.8,4.14 20.28,1.71 40.57,3.47 60.89,4.23 46.23,1.72 92.48,2.65 138.7,4.44 8.51,0.33 16.9,3.25 25.39,4.79 3.16,0.57 6.43,0.97 9.62,0.82 9.5,-0.47 18.97,-1.25 28.45,-1.92" /><path
                 id="path48"
                 fill="#fcca18"
                 d="m 3657.9,1733.4 c 2.12,3.77 3.41,8.68 6.6,10.99 3.62,2.63 8.86,3.77 13.52,4.14 22.37,1.73 44.8,2.79 67.17,4.52 12.71,0.98 25.35,2.81 40.81,4.58 -4.68,7.33 -7.62,11.95 -11.53,18.08 25.38,4.71 49.4,9.29 74.53,0.35 -17.81,-2.47 -35.63,-4.93 -55.09,-7.61 1.95,-5.62 3.01,-8.69 4.08,-11.77 -0.21,-4.78 -0.41,-9.57 -0.63,-14.35 -3.99,-0.32 -7.99,-0.63 -11.99,-0.93 -10.16,4.14 -20.26,7.78 -29.1,-2.65 -8.11,-0.55 -16.22,-1.09 -24.33,-1.65 -6.23,5.23 -11.9,5.19 -16.85,-1.78 -8.12,-0.74 -16.24,-1.49 -24.37,-2.23 -6.04,5.15 -11.63,5.28 -16.56,-1.55 -5.27,-0.53 -10.54,-1.07 -15.81,-1.62 -0.04,1.17 -0.2,2.34 -0.45,3.48" /><path
                 id="path50"
                 fill="#fbc817"
                 d="m 3114.7,1667.1 c -5.15,3.5 -7.95,9.21 -16.72,8.54 -12.44,-0.94 -24.9,-1.45 -38.13,1.2 -11.84,2.39 -26.15,1.96 -39.37,1.71 0.33,4.63 0.65,9.27 1.13,16.2 20.34,2.03 40.21,4 62.53,6.22 -1.63,-7.23 -2.53,-11.27 -3.52,-15.7 6.64,-3.28 11.76,-3.02 13.62,5.4 2.54,11.5 12.68,11.01 20.78,12.43 8.92,1.57 17.48,0.82 21.32,-10.52 0.95,-2.82 7.49,-3.73 11.46,-5.52 -2.81,-6.22 -5.33,-12.31 -13.88,-12.92 -2.45,-0.17 -4.64,-3.94 -6.95,-6.05 l -12.27,-0.99" /><path
                 id="path52"
                 fill="#fcd746"
                 d="m 4390,1746 c 2.04,7.31 6.83,5.81 12.67,5.01 19.13,-2.63 38.38,-4.32 57.59,-6.36 1.39,-0.05 2.77,-0.09 4.15,-0.14 12.34,-2.68 24.66,-5.39 37,-8.08 19.4,-5.4 38.78,-10.87 58.22,-16.19 6.48,-1.76 13.08,-3.1 19.64,-4.63 4.33,-4.47 8.68,-8.93 13.01,-13.39 -4.57,0.57 -9.43,0.33 -13.67,1.85 -55.38,19.86 -112.57,31.18 -170.93,37.32 -6,0.62 -11.79,3.02 -17.68,4.61" /><path
                 id="path54"
                 fill="#fcd338"
                 d="m 4707.2,1494.5 c 1.17,1.62 1.99,3.85 3.57,4.79 26.45,15.59 39.27,41.19 50.58,68.02 0.88,2.1 3.84,3.32 5.84,4.95 0.96,-41.89 -20.51,-70.51 -54.51,-91.5 -5.74,-3.55 -12.27,-5.81 -18.44,-8.66 -3.03,11.72 10.29,13.98 12.96,22.4" /><path
                 id="path56"
                 fill="#fde775"
                 d="m 4707.2,1494.5 c -2.67,-8.42 -15.99,-10.68 -12.96,-22.4 -3.36,-1.27 -6.71,-2.53 -10.08,-3.79 -3.14,3.89 -6.29,7.24 -9.83,0.38 l 0.04,0.04 c -4.13,-1.39 -8.27,-2.77 -12.4,-4.16 l 0.42,-0.2 c -15.46,-1.96 -30.92,-3.99 -46.39,-5.88 -11.99,-1.47 -24.11,-5.18 -35.66,1.81 38.8,3.48 75.1,16.37 111.41,29.31 5.08,1.81 10.29,3.27 15.45,4.89" /><path
                 id="path58"
                 fill="#fcd030"
                 d="m 3830.8,1506 c 1.57,-10.29 8.36,-7.62 15.29,-6.86 9.61,1.06 19.93,2.52 26.05,-8.23 -23.32,1.21 -46.65,2.41 -69.97,3.61 -0.05,3.84 -0.09,7.67 -0.14,11.51 l 28.77,-0.03" /><path
                 id="path60"
                 fill="#fcd338"
                 d="m 3127,1668.1 c 2.31,2.11 4.5,5.88 6.95,6.05 8.55,0.61 11.07,6.7 13.88,12.92 6.8,1.31 13.61,2.62 20.41,3.93 0.77,-3.71 1.54,-7.39 2.59,-12.38 6.36,2.01 11.55,3.65 17.32,5.48 0.41,-3.27 0.74,-5.82 1.06,-8.36 -20.74,-2.55 -41.48,-5.1 -62.21,-7.64" /><path
                 id="path62"
                 fill="#fbc717"
                 d="m 3802,1506 c 0.05,-3.84 0.09,-7.67 0.14,-11.51 -4.11,0.13 -8.22,0.26 -12.32,0.37 -5.7,9.21 -6.69,9.23 -12.73,0.25 -8.08,0.15 -16.15,0.31 -24.22,0.47 -0.14,4.82 -0.28,9.63 -0.41,14.45 12.21,0.04 24.42,0.44 36.61,-0.07 4.36,-0.19 8.62,-2.59 12.93,-3.96" /><path
                 id="path64"
                 fill="#fccb1c"
                 d="m 4592.3,1702.2 c -4.33,4.46 -8.68,8.92 -13.01,13.39 15.73,-5.69 31.55,-11.15 47.16,-17.17 6.23,-2.41 12.25,-5.68 17.86,-9.33 4.83,-3.15 6.12,-7.35 -0.15,-10.9 -7.66,3.62 -15.3,7.23 -22.95,10.84 -3.68,8.1 -10.26,10.39 -18.55,9.23 -3.45,1.31 -6.91,2.63 -10.36,3.94" /><path
                 id="path66"
                 fill="#fcd746"
                 d="m 3797.4,1742.3 c 0.22,4.78 0.42,9.57 0.63,14.35 5.45,0.04 10.89,0.08 16.34,0.12 0.58,-7.34 5.73,-7.68 11.5,-8.16 5.77,-0.48 11.46,-2.13 17.18,-3.27 -15.22,-1.01 -30.43,-2.03 -45.65,-3.04" /><path
                 id="path68"
                 fill="#fcd746"
                 d="m 3949.6,1751.8 c 13.49,8.96 27.45,6.34 41.5,1.74 -13.83,-0.58 -27.66,-1.17 -41.5,-1.74" /><path
                 id="path70"
                 fill="#fcd338"
                 d="m 2407.8,1765.4 c 12.17,-3.7 19.75,-12.2 24.62,-23.54 -12.81,3.03 -20.35,11.58 -24.62,23.54" /><path
                 id="path72"
                 fill="#fcd338"
                 d="m 3196.9,1676.4 c 11.43,13 15.63,13.61 25.14,3.67 -8.38,-1.22 -16.76,-2.45 -25.14,-3.67" /><path
                 id="path74"
                 fill="#fcd746"
                 d="m 3875.9,1748 c 9.21,8.01 18.91,6.46 28.79,1.48 -9.6,-0.48 -19.19,-0.98 -28.79,-1.48" /><path
                 id="path76"
                 fill="#fcd746"
                 d="m 3756.3,1738.7 c 8.84,10.43 18.94,6.79 29.1,2.65 -9.71,-0.88 -19.4,-1.76 -29.1,-2.65" /><g
                 id="g90"
                 fill="#fcd338"><path
                   id="path78"
                   d="m 2435.2,1740 c 12.29,-0.59 18.23,-8.45 21.77,-19.04 -10.86,2.22 -17.4,9.4 -21.77,19.04" /><path
                   id="path80"
                   d="m 3439.6,1705.7 c 5.85,9.62 13.16,7.02 20.72,2.5 -6.91,-0.83 -13.81,-1.67 -20.72,-2.5" /><path
                   id="path82"
                   d="m 3657.9,1733.4 c 0.25,-1.14 0.41,-2.31 0.45,-3.48 -8.39,-0.76 -16.78,-1.53 -25.18,-2.3 5.62,1.8 11.25,3.61 16.87,5.43 2.62,0.12 5.24,0.24 7.86,0.35" /><path
                   id="path84"
                   d="m 3237.9,1681.4 c 3.91,14.5 10.9,3.9 16.81,2.07 -5.6,-0.7 -11.21,-1.38 -16.81,-2.07" /><path
                   id="path86"
                   d="m 3271,1685.4 c 4.51,8.11 10.23,7.52 16.6,2.34 -5.53,-0.79 -11.06,-1.57 -16.6,-2.34" /><path
                   id="path88"
                   d="m 3303.9,1689.4 c 4.53,8.25 10.29,7.45 16.65,2.28 -5.55,-0.76 -11.1,-1.52 -16.65,-2.28" /></g><path
                 id="path92"
                 fill="#fcd746"
                 d="m 3715.1,1735.3 c 4.95,6.97 10.62,7.01 16.85,1.78 -5.62,-0.59 -11.23,-1.18 -16.85,-1.78" /><g
                 id="g110"
                 fill="#fcd338"><path
                   id="path94"
                   d="m 3674.2,1731.5 c 4.93,6.83 10.52,6.7 16.56,1.55 -5.52,-0.52 -11.04,-1.03 -16.56,-1.55" /><path
                   id="path96"
                   d="m 3592,1723.4 c 4.94,6.47 10.45,6.4 16.4,1.45 -5.47,-0.49 -10.93,-0.96 -16.4,-1.45" /><path
                   id="path98"
                   d="m 3550.7,1718.8 c 4.9,7.27 10.53,6.99 16.65,1.61 -5.55,-0.54 -11.1,-1.08 -16.65,-1.61" /><path
                   id="path100"
                   d="m 3509.6,1714 c 4.59,8.48 10.38,7.49 16.71,2.12 -5.57,-0.7 -11.14,-1.4 -16.71,-2.12" /><path
                   id="path102"
                   d="m 3476.7,1710.4 c 4.73,7.66 10.4,7.25 16.64,1.92 -5.55,-0.64 -11.1,-1.28 -16.64,-1.92" /><path
                   id="path104"
                   d="m 3406.7,1701.8 c 4.58,8.06 10.3,7.48 16.64,2.19 -5.54,-0.73 -11.09,-1.46 -16.64,-2.19" /><path
                   id="path106"
                   d="m 3373.8,1697.9 c 4.7,7.72 10.37,7.33 16.64,2.02 -5.55,-0.67 -11.09,-1.35 -16.64,-2.02" /><path
                   id="path108"
                   d="m 3340.9,1693.9 c 4.72,7.73 10.39,7.21 16.63,1.96 -5.54,-0.66 -11.08,-1.31 -16.63,-1.96" /></g><path
                 id="path112"
                 fill="#fcd746"
                 d="m 4602.7,1698.3 c 8.29,1.16 14.87,-1.13 18.55,-9.23 -6.18,3.08 -12.37,6.16 -18.55,9.23" /><path
                 id="path114"
                 fill="#fcd030"
                 d="m 3777.1,1495.1 c 6.04,8.98 7.03,8.96 12.73,-0.25 -4.24,0.09 -8.48,0.17 -12.73,0.25" /><path
                 id="path116"
                 fill="#fcd030"
                 d="m 3600.4,1435.8 c -3.68,-5 -6.35,-3.18 -8.61,1.29 2.87,-0.43 5.74,-0.86 8.61,-1.29" /><path
                 id="path118"
                 fill="#fcd338"
                 d="m 4765.7,1616.6 c -4.1,2.3 -6.25,4.9 -1.44,8.68 0.49,-2.9 0.96,-5.79 1.44,-8.68" /><path
                 id="path120"
                 fill="#fcd746"
                 d="m 5772.9,2101 c -0.38,-2.15 -0.76,-4.3 -1.13,-6.41 0.38,2.16 0.75,4.28 1.13,6.41" /><path
                 id="path122"
                 fill="#fcd030"
                 d="m 4662,1464.6 c 4.13,1.39 8.27,2.77 12.4,4.16 -2.28,-6.9 -6.94,-6.73 -12.4,-4.16" /><path
                 id="path124"
                 fill="#fcd030"
                 d="m 4674.4,1468.7 c 3.54,6.86 6.69,3.51 9.83,-0.38 -3.27,0.13 -6.55,0.25 -9.83,0.38" /><path
                 id="path126"
                 fill="#fccb1c"
                 d="m 4088.4,1852.2 c -26.72,-0.2 -53.45,-0.05 -80.15,-0.74 -12.87,-0.32 -25.7,-2.24 -38.56,-3.4 -2.72,-0.26 -5.67,-1.1 -8.16,-0.4 -13.42,3.82 -26.59,2.32 -40.11,0.02 -14.03,-2.37 -28.35,-3.28 -42.59,-4.11 -11.37,-0.65 -22.84,0.36 -34.2,-0.4 -23.75,-1.6 -47.46,-3.85 -71.18,-5.93 -5.41,-0.48 -10.78,-1.95 -16.18,-1.98 -42.33,-0.19 -84.26,-3.45 -125.96,-11.64 -19.9,-3.9 -40.7,-3.07 -61.04,-5.05 -27.07,-2.62 -54.1,-5.75 -81.11,-8.93 -18.88,-2.22 -37.7,-4.95 -56.56,-7.37 -41.77,-5.35 -83.44,-12.05 -125.37,-15.54 -38.68,-3.23 -76.27,-13.08 -115.45,-14.22 -36.42,-1.08 -72.6,-9.76 -108.96,-14.57 -17.53,-2.32 -35.25,-3.16 -52.81,-5.26 -7.2,-0.86 -14.23,-3.22 -21.32,-5 -3.25,-0.82 -6.5,-2.85 -9.64,-2.64 -27.76,1.86 -55.32,0.77 -82.76,-4.02 -8.99,-1.57 -14.17,2.38 -15.12,13.57 9.52,-0.53 17.99,-1.68 26.39,-1.27 8.77,0.42 17.49,2.17 26.18,3.68 6.55,1.14 13.04,4.15 19.51,4 13.64,-0.31 26.07,8.39 40.02,4.66 2.58,-0.68 5.48,-0.63 8.18,-0.39 27.08,2.41 54.15,4.89 81.21,7.46 14.89,1.43 29.84,2.58 44.63,4.73 34.91,5.07 69.68,11.11 104.64,15.86 18.86,2.56 37.99,3.09 56.97,4.87 9.45,0.9 18.87,2.35 28.25,3.9 37.53,6.2 75.58,7.42 113.12,15.33 33.04,6.96 67.62,6.65 101.52,9.52 4.08,0.35 8.37,-0.12 12.23,0.97 32.46,9.19 65.9,9.16 99.15,11.66 33.85,2.55 67.51,7.54 101.28,11.16 18.27,1.96 36.59,4.18 54.93,4.79 55.3,1.83 110.64,2.65 165.94,4.44 31.35,1.02 62.66,3.16 93.99,4.79 3.02,-4.18 6.05,-8.36 9.09,-12.55" /><path
                 id="path128"
                 fill="#050606"
                 d="m 5803.6,2226.6 c -1.66,-11.03 0.2,-23.04 -10.2,-33.79 -5.21,15.94 6.1,23.92 10.2,33.79" /><path
                 id="path130"
                 fill="#050606"
                 d="m 5807.5,2237.2 0.83,1.64 -1.03,0.19 z" /><path
                 id="path132"
                 fill="#fbc717"
                 d="m 4522,1460.8 c -14.89,-1.37 -29.85,-4.35 -44.67,-3.74 -27.51,1.12 -55.04,3.51 -82.33,7.1 -12.15,1.6 -23.73,7.41 -36.63,11.66 -5.14,-2.59 -11.47,-6.65 -18.37,-8.92 -4.04,-1.32 -11.49,-1.54 -13.15,0.78 -5.92,8.3 -15.45,4.08 -20.62,6.85 -18.65,10.02 -35.6,-1.23 -53.15,-0.53 -7.11,0.29 -11.81,0.98 -14.96,7.3 2.56,4.63 4.32,10.02 7.84,13.74 8.7,9.19 10.49,8.64 17.6,-0.41 14.1,0.79 26.29,1.47 42.27,2.37 0.11,0.13 2.95,3.54 5.25,6.29 6.08,-1.89 12.24,-6.1 17.23,-5 26.37,5.8 49.69,-6.81 74.41,-10.62 10.82,-1.67 22.56,1.62 31.47,-8.46 1.36,-1.54 7.51,1.2 11.46,1.9 7.32,1.31 14.94,4.53 21.93,3.5 34.68,-5.1 69.14,-5.1 103.73,0.52 5.91,0.95 12.22,-0.62 18.32,-1 -0.51,-2.01 -1.01,-4.02 -1.5,-6.04 -9.33,-3.02 -18.47,-7.16 -28.04,-8.72 -9.26,-1.52 -19.05,0.34 -28.42,-0.78 -3.49,-0.42 -6.47,-5.06 -9.67,-7.79" /><path
                 id="path134"
                 fill="#fbc817"
                 d="m 3016.4,1674.6 c -11.5,-9.72 -23.41,-17.83 -39.84,-13.45 -3.71,0.99 -8.82,1.38 -11.84,-0.41 -14.57,-8.63 -30.44,-6.36 -46,-6.54 -21.8,-0.25 -43.6,-0.07 -65.4,-0.15 -3.4,-0.02 -6.97,0.15 -10.18,-0.75 -17,-4.77 -33.85,-6.6 -51.87,-5.51 -25.18,1.53 -50.6,-1.48 -75.93,-1.71 -38.99,-0.33 -76.82,8.25 -114.68,16.28 3.8,8.7 11.47,8.78 19.12,8.26 17.6,-1.21 35.22,-2.27 52.76,-4.17 19.76,-2.15 39.5,4.69 59.7,-3.11 10.27,-3.96 23.67,0.08 35.66,0.61 9.21,0.4 18.42,0.97 31.14,1.67 1.69,1.28 6.42,7.53 11.79,8.13 4.79,0.54 10.03,-5.81 15.53,-7.92 4.87,-1.86 10.37,-2.86 15.59,-2.86 13.2,-0.01 26.4,0.61 39.58,1.31 3.16,0.16 6.27,1.5 9.36,2.44 3.81,1.16 8.57,4.59 11.21,3.36 19.13,-8.91 31.95,4.16 47.05,13.45 3.01,-3.94 5.7,-7.45 8.4,-10.97 1.32,0.08 3.45,-0.34 3.81,0.28 6.51,11.05 19.85,5.22 28.38,11.43 0.99,0.72 5.21,-1.11 6.35,-2.81 5.14,-7.69 12.92,-6.49 20.31,-6.86" /><g
                 id="g142"
                 fill="#fcca18"><path
                   id="path136"
                   d="m 3645.7,1592.5 c 5.74,1.37 11.47,3.85 17.22,3.9 36.31,0.36 72.63,0.71 108.94,0.03 38.88,-0.75 77.76,-2.54 116.64,-4.04 32.03,-1.23 64.09,-2.17 96.07,-4.26 18.26,-1.22 36.39,-4.51 54.58,-6.84 3.38,-0.44 6.77,-0.98 10.16,-1.11 36.14,-1.44 72.3,-2.43 108.41,-4.37 18.31,-0.99 36.51,-3.81 54.78,-5.55 10.25,-0.96 20.57,-1.41 33.72,-2.28 -8.77,-11.38 -17.25,-8.1 -24.89,-7.55 -10.83,0.77 -21.59,2.36 -32.41,3.18 -36.64,2.77 -73.3,5.36 -109.95,7.97 -4.1,0.3 -8.22,0.29 -12.33,0.29 -48.92,-0.03 -97.7,2.13 -146.29,8.11 -0.67,0.08 -1.37,0.07 -2.05,0.09 -42.99,1.4 -85.99,2.6 -128.97,4.26 -21.55,0.84 -43.06,3.13 -64.6,3.57 -13.54,0.28 -27.11,-1.91 -40.69,-2.5 -12.96,-0.57 -25.95,-0.48 -38.93,-0.68 0.2,2.58 0.39,5.18 0.59,7.78" /><path
                   id="path138"
                   d="m 4493.5,1543.9 c -7.65,-1.61 -15.34,-4.75 -22.93,-4.56 -26.58,0.63 -53.16,1.94 -79.68,3.89 -26.43,1.94 -52.76,5.21 -79.19,7.37 -11.58,0.93 -23.28,0.98 -34.9,0.63 -10.75,-0.32 -18.29,3.71 -24.31,15.9 12.44,0 23.56,0.45 34.61,-0.14 10.84,-0.55 21.61,-2.31 32.43,-3.29 16.26,-1.47 32.79,-1.4 48.77,-4.34 34.71,-6.39 69.61,-2.54 104.38,-4.11 7.01,-0.32 13.91,-3.14 20.86,-4.81 -0.02,-2.18 -0.03,-4.36 -0.04,-6.54" /><path
                   id="path140"
                   d="m 4172.6,1789.7 c -9.22,-23.27 -37.57,-34.82 -59.88,-24.7 -7.34,3.33 -15.12,5.69 -22.7,8.5 0.33,5.94 0.67,11.9 1.04,18.42 14.97,4.04 27.65,4.4 36.9,-12.07 13.63,12.94 28.09,18 44.64,9.85" /></g><path
                 id="path144"
                 fill="#faea8a"
                 d="m 3518.3,1575.8 c -51.98,-13.06 -103.96,-26.11 -155.37,-39.02 10.73,11.31 32.56,22.09 55.11,26.67 33.18,6.73 66.38,13.34 99.58,20.01 0.23,-2.55 0.46,-5.1 0.68,-7.66" /><path
                 id="path146"
                 fill="#faea8a"
                 d="m 4514.1,1551.2 c 28.65,4.6 57.31,9.2 85.96,13.8 7.29,1.13 17.03,-1.73 17.51,10.63 5.32,0.84 10.65,1.68 16.87,2.65 2.91,-10.79 -5.04,-14.08 -12.12,-17.6 -23.07,-11.45 -47.97,-15.29 -73.33,-16.66 -11.59,-0.62 -23.23,-0.21 -34.85,-0.28 -0.01,2.49 -0.03,4.97 -0.04,7.46" /><path
                 id="path148"
                 fill="#fcd746"
                 d="m 3518.3,1575.8 c -0.22,2.56 -0.45,5.11 -0.68,7.66 16.2,1.67 32.38,3.83 48.62,4.91 26.46,1.75 52.97,2.76 79.46,4.09 -0.2,-2.6 -0.39,-5.2 -0.59,-7.78 -35.87,1.72 -71.27,-2.16 -106.53,-8.35 -6.59,-1.16 -13.51,-0.4 -20.28,-0.53" /><path
                 id="path150"
                 fill="#fbc717"
                 d="m 4225.9,1481.3 c -3.69,-13.09 -15.37,-10.11 -20.92,-6.13 -9.36,6.73 -18.75,5.74 -28.55,6.22 0.63,1.88 0.73,4.85 1.99,5.48 6.72,3.32 13.71,6.05 22.34,9.72 7.13,-4.33 16.13,-9.81 25.14,-15.29" /><path
                 id="path152"
                 fill="#fde775"
                 d="m 4607.4,1482 c 23.58,6.56 47.15,13.13 72.15,20.09 -11.8,-13.91 -47.48,-24.43 -72.15,-20.09" /><path
                 id="path154"
                 fill="#fcca18"
                 d="m 4501.4,1736.4 c -12.34,2.69 -24.66,5.4 -37,8.08 3.83,8.21 7.8,17.13 19,14.52 5.68,-1.31 11.69,-4.76 15.55,-9.05 2.61,-2.9 1.75,-8.93 2.45,-13.55" /><path
                 id="path156"
                 fill="#fcd030"
                 d="m 3460.6,1498 c 2.7,1.91 5.16,4.9 8.15,5.57 18.88,4.16 37.87,7.81 56.83,11.64 0.39,-1.66 0.77,-3.32 1.16,-4.98 -22.19,-5.37 -44.38,-10.74 -66.56,-16.1 0.15,1.28 0.29,2.58 0.42,3.87" /><path
                 id="path158"
                 fill="#fcd746"
                 d="m 4666.9,1533.6 c -16.3,-5.21 -30.9,-15.97 -52.65,-14.66 4.96,3.44 7.47,5.72 10.39,7.12 10.17,4.9 20.3,10.01 30.87,13.9 3.41,1.25 8.12,-1.04 12.24,-1.71 -0.28,-1.55 -0.56,-3.1 -0.85,-4.65" /><path
                 id="path160"
                 fill="#fde775"
                 d="m 3401.1,1472.2 c 12.14,12.08 26.89,18.47 44.14,19.38 -13.13,-9.91 -27.88,-16.3 -44.14,-19.38" /><path
                 id="path162"
                 fill="#faea8a"
                 d="m 3472.6,1477.5 c -14.97,-5.43 -29.93,-10.86 -44.9,-16.28 h -10.4 c 10.57,11.88 21.24,16.05 56.23,22.39 -0.32,-2.05 -0.62,-4.08 -0.93,-6.11" /><path
                 id="path164"
                 fill="#fcd746"
                 d="m 3472.6,1477.5 c 0.31,2.03 0.61,4.06 0.93,6.11 20.38,3.59 40.74,7.15 61.11,10.73 -9.46,-2.93 -18.84,-6.16 -28.4,-8.72 -11.13,-3.01 -22.42,-5.44 -33.64,-8.12" /><path
                 id="path166"
                 fill="#fcd746"
                 d="m 3423.8,1518 c -12.44,-5.68 -24.87,-11.35 -37.31,-17.01 -0.6,1.4 -1.2,2.8 -1.81,4.21 11.46,9.12 23.55,16.8 39.02,16.87 0.04,-1.36 0.07,-2.71 0.1,-4.07" /><path
                 id="path168"
                 fill="#fbc817"
                 d="m 2559.6,1674.9 c -18.11,-0.2 -18.11,-0.2 -20.72,12.11 4.44,-1.4 9.2,-2.21 13.2,-4.39 3.01,-1.65 5.04,-5.08 7.52,-7.72" /><path
                 id="path170"
                 fill="#fcca18"
                 d="m 4617.6,1575.6 c -0.48,-12.36 -10.22,-9.5 -17.51,-10.63 2.7,8.69 9.75,10.24 17.51,10.63" /><path
                 id="path172"
                 fill="#fcca18"
                 d="m 4514.1,1551.2 c 0.01,-2.49 0.03,-4.97 0.04,-7.46 -4.41,-6 -8.74,-6.13 -12.95,0.23 -0.19,2.27 -0.39,4.57 -0.59,6.85 4.5,0.13 9,0.25 13.5,0.38" /><path
                 id="path174"
                 fill="#fbc817"
                 d="m 2538.9,1687 c -6.59,0.57 -15,-2.62 -16.69,8.08 6.61,-0.52 15.31,3.26 16.69,-8.08" /><path
                 id="path176"
                 fill="#fbc817"
                 d="m 2514.3,1695.3 c -4.14,2.67 -8.27,5.33 -12.41,8 10.93,7.88 10.47,-1.91 12.41,-8" /><path
                 id="path178"
                 fill="#fccb1c"
                 d="m 2883.5,1743.2 c -2.2,-0.62 -4.47,-1.88 -6.56,-1.64 -1.3,0.15 -3.57,3.41 -3.28,3.86 1.31,1.96 3.25,4.5 5.23,4.77 2.29,0.3 4.86,-1.58 7.31,-2.49 -0.9,-1.5 -1.8,-3 -2.7,-4.5" /><path
                 id="path180"
                 fill="#fbc817"
                 d="m 2580.1,1666.5 c -4.13,2.74 -8.25,5.47 -12.38,8.2 5.99,0.08 11.99,0.18 12.38,-8.2" /><path
                 id="path182"
                 fill="#fde775"
                 d="m 4588.1,1478.1 c 0.49,2.02 0.99,4.03 1.5,6.04 1.49,-0.92 2.98,-1.82 4.46,-2.72 -1.99,-1.11 -3.97,-2.22 -5.96,-3.32" /><path
                 id="path184"
                 fill="#fcca18"
                 d="m 3759.2,1774.6 c -0.49,-1.15 -0.99,-2.31 -1.48,-3.45 -1.15,0.5 -2.94,0.73 -3.27,1.56 -0.32,0.82 0.81,2.23 1.3,3.38 1.15,-0.49 2.3,-0.99 3.45,-1.49" /><path
                 id="path186"
                 fill="#fcd746"
                 d="m 3559.3,1497.9 c -5.33,-5.75 -10.75,-5.92 -16.26,-0.27 5.42,0.08 10.84,0.18 16.26,0.27" /><path
                 id="path188"
                 fill="#faea8a"
                 d="m 4500.6,1550.8 c 0.2,-2.28 0.4,-4.58 0.59,-6.85 -2.57,-0.02 -5.13,-0.05 -7.7,-0.08 0.02,2.19 0.03,4.37 0.05,6.55 2.35,0.13 4.7,0.25 7.06,0.38" /><path
                 id="path190"
                 fill="#fde775"
                 d="m 3460.6,1498 c -0.13,-1.29 -0.27,-2.59 -0.42,-3.87 -1.63,0.41 -3.25,0.83 -4.87,1.25 1.77,0.87 3.52,1.75 5.29,2.62" /></g></g></g></g></g></g><g
     style="font-style:normal;font-variant:normal;font-weight:normal;font-stretch:normal;font-size:205.333px;line-height:1.25;font-family:Lobster;-inkscape-font-specification:'Lobster, Normal';font-variant-ligatures:normal;font-variant-caps:normal;font-variant-numeric:normal;font-variant-east-asian:normal;fill:#000000;fill-opacity:1;stroke:none;stroke-width:5.13332"
     id="text927"
     aria-label="Nandi"><path
       id="path931"
       style="stroke-width:5.13332"
       d="m 173.75216,424.85337 q -13.96264,4.92799 -21.35463,15.60531 -7.18665,10.47198 -7.18665,25.46129 0,6.57065 1.43733,12.11464 1.43733,5.33866 4.10666,8.82932 -13.14131,0 -19.50664,-5.33865 -6.15999,-5.544 -6.15999,-16.83731 0,-14.37331 8.41866,-26.69329 8.41865,-12.52531 22.79196,-19.9173 14.37331,-7.39199 31.21061,-7.39199 4.72266,0 8.21332,0.616 3.49067,0.616 8.00799,2.25867 l 24.63996,109.85315 22.9973,-111.49582 h 19.9173 L 237.81606,565.50647 H 209.4801 L 185.66148,463.66131 162.25352,565.50647 h -19.50664 z" /><path
       id="path933"
       style="stroke-width:5.13332"
       d="m 285.65223,566.73847 q -11.70398,0 -19.50664,-8.00799 -7.80265,-8.00799 -7.80265,-25.05062 0,-15.19465 5.95466,-31.82662 6.15999,-16.8373 18.0693,-28.33595 12.11465,-11.70398 28.74662,-11.70398 8.41865,0 12.52531,2.87466 4.10666,2.87466 4.10666,7.59732 v 1.43733 l 2.25866,-10.88265 h 29.56795 l -14.78397,69.81322 q -0.82133,3.08 -0.82133,6.57066 0,8.82932 8.41865,8.82932 5.74932,0 9.85598,-5.33866 4.312,-5.33866 6.77599,-13.96265 h 8.62399 q -7.59732,22.17597 -18.89064,30.18395 -11.08798,7.80266 -22.38129,7.80266 -8.62399,0 -13.96265,-4.72266 -5.13332,-4.92799 -6.15999,-14.16798 -5.95465,8.41866 -13.34664,13.75731 -7.18666,5.13333 -17.24797,5.13333 z m 13.34664,-19.9173 q 5.13333,0 10.06132,-4.72266 5.13332,-4.92799 6.98132,-13.34665 l 9.85598,-46.40525 q 0,-2.66933 -2.05333,-5.13333 -2.05333,-2.66933 -6.36532,-2.66933 -8.21332,0 -14.78397,9.65065 -6.57066,9.44532 -10.26665,22.9973 -3.696,13.34664 -3.696,23.61329 0,10.26665 2.87466,13.14132 3.08,2.87466 7.39199,2.87466 z" /><path
       id="path935"
       style="stroke-width:5.13332"
       d="m 443.0175,566.73847 q -12.52531,0 -18.47997,-6.57066 -5.74932,-6.77599 -5.74932,-16.63197 0,-4.31199 1.02666,-9.65065 1.02667,-5.54399 2.05333,-10.67732 1.232,-5.13332 1.64266,-6.57065 1.64267,-7.18666 3.08,-14.16798 1.43733,-6.98132 1.43733,-11.29331 0,-10.47199 -7.39199,-10.47199 -5.33866,0 -9.44532,5.33866 -4.10666,5.13333 -6.57065,13.55198 l -13.96264,65.91189 h -29.56796 l 21.7653,-102.6665 h 29.56795 l -2.25866,10.67732 q 10.26665,-11.49865 24.02396,-11.49865 10.47198,0 16.63197,5.74933 6.15999,5.74932 6.15999,17.4533 0,5.95466 -1.43733,13.34664 -1.43733,7.18666 -4.10666,17.65864 -1.64266,6.36532 -3.07999,12.52531 -1.232,5.95466 -1.232,9.44532 0,4.10666 1.848,6.36532 1.84799,2.25867 6.36532,2.25867 6.15999,0 9.85598,-4.312 3.696,-4.51732 7.39199,-13.75731 h 8.62399 q -7.59733,22.58663 -17.65864,30.38929 -9.85599,7.59732 -20.5333,7.59732 z" /><path
       id="path937"
       style="stroke-width:5.13332"
       d="m 497.40188,566.73847 q -11.70398,0 -19.50664,-8.00799 -7.80265,-8.00799 -7.80265,-25.05062 0,-15.19465 5.95465,-31.82662 6.15999,-16.8373 18.06931,-28.33595 12.11464,-11.70398 28.74662,-11.70398 8.41865,0 12.52531,2.87466 4.10666,2.87466 4.10666,7.59732 v 0.82133 l 10.06132,-47.22659 30.38928,-4.10666 -23.61329,110.87982 q -0.82134,3.08 -0.82134,6.57066 0,4.10666 1.848,5.95465 2.05333,1.64267 6.57066,1.64267 5.74932,0 9.85598,-4.92799 4.31199,-4.928 6.77599,-13.14132 h 8.62398 q -12.52531,36.75461 -41.27193,36.75461 -8.41865,0 -13.75731,-4.51733 -5.13332,-4.51732 -6.36532,-13.14131 -5.33866,8.21332 -12.93598,13.55198 -7.39199,5.33866 -17.4533,5.33866 z m 13.34664,-19.9173 q 4.92799,0 9.85598,-4.51733 5.13333,-4.51732 6.98133,-12.52531 v -1.02667 l 10.06131,-47.02125 q -1.84799,-7.18666 -8.41865,-7.18666 -8.21332,0 -14.78398,9.65065 -6.57065,9.44532 -10.26665,22.9973 -3.69599,13.34664 -3.69599,23.61329 0,10.26665 2.87466,13.14132 3.08,2.87466 7.39199,2.87466 z" /><path
       id="path939"
       style="stroke-width:5.13332"
       d="m 614.93256,451.75199 q -6.77599,0 -11.49865,-4.72266 -4.72265,-4.72266 -4.72265,-11.49864 0,-6.77599 4.72265,-11.49865 4.72266,-4.92799 11.49865,-4.92799 6.77599,0 11.49865,4.92799 4.92799,4.72266 4.92799,11.49865 0,6.77598 -4.92799,11.49864 -4.72266,4.72266 -11.49865,4.72266 z m -13.96264,114.98648 q -9.85598,0 -16.01597,-6.15999 -5.95466,-6.15999 -5.95466,-18.47997 0,-5.13333 1.64266,-13.34665 l 13.96265,-65.91189 h 29.56795 l -14.78398,69.81322 q -0.82133,3.08 -0.82133,6.57066 0,4.10666 1.848,5.95465 2.05333,1.64267 6.57065,1.64267 3.696,0 6.57066,-1.232 -0.82133,10.26665 -7.39199,15.81064 -6.36532,5.33866 -15.19464,5.33866 z" /></g></svg>
